<svg width="43" height="35" viewBox="0 0 43 35" fill="none" xmlns="http://www.w3.org/2000/svg">
<mask id="mask0_1_139" style="mask-type:luminance" maskUnits="userSpaceOnUse" x="0" y="1" width="42" height="33">
<path d="M36.7559 33.8401L6.13573 33.8262C3.25465 33.8262 0.92334 31.4879 0.92334 28.6138L0.930295 6.51858C0.930295 3.6375 3.26857 1.30618 6.14269 1.30618L36.7629 1.3201C39.644 1.3201 41.9753 3.65838 41.9753 6.5325L41.9683 28.6277C41.9753 31.5088 39.637 33.8401 36.7559 33.8401Z" fill="white"/>
</mask>
<g mask="url(#mask0_1_139)">
<path opacity="0.5" d="M31.1816 33.8332H22.3157L3.75569 1.3062L12.6216 1.31316L31.1816 33.8332Z" fill="white"/>
</g>
<mask id="mask1_1_139" style="mask-type:luminance" maskUnits="userSpaceOnUse" x="0" y="1" width="42" height="33">
<path d="M36.7559 33.8401L6.13573 33.8262C3.25465 33.8262 0.92334 31.4879 0.92334 28.6138L0.930295 6.51858C0.930295 3.6375 3.26857 1.30618 6.14269 1.30618L36.7629 1.3201C39.644 1.3201 41.9753 3.65838 41.9753 6.5325L41.9683 28.6277C41.9753 31.5088 39.637 33.8401 36.7559 33.8401Z" fill="white"/>
</mask>
<g mask="url(#mask1_1_139)">
<path opacity="0.5" d="M13.9369 33.8262H5.07789L-13.4821 1.29922L-4.61619 1.30618L13.9369 33.8262Z" fill="white"/>
</g>
<mask id="mask2_1_139" style="mask-type:luminance" maskUnits="userSpaceOnUse" x="0" y="1" width="42" height="33">
<path d="M36.7559 33.8401L6.13573 33.8262C3.25465 33.8262 0.92334 31.4879 0.92334 28.6138L0.930295 6.51858C0.930295 3.6375 3.26857 1.30618 6.14269 1.30618L36.7629 1.3201C39.644 1.3201 41.9753 3.65838 41.9753 6.5325L41.9683 28.6277C41.9753 31.5088 39.637 33.8401 36.7559 33.8401Z" fill="white"/>
</mask>
<g mask="url(#mask2_1_139)">
<path opacity="0.75" d="M43.5342 33.8402L27.3751 33.8332L8.81505 1.3062L24.9742 1.31316L43.5342 33.8402Z" fill="white"/>
</g>
<mask id="mask3_1_139" style="mask-type:luminance" maskUnits="userSpaceOnUse" x="0" y="1" width="42" height="33">
<path d="M36.7559 33.8401L6.13573 33.8262C3.25465 33.8262 0.92334 31.4879 0.92334 28.6138L0.930295 6.51858C0.930295 3.6375 3.26857 1.30618 6.14269 1.30618L36.7629 1.3201C39.644 1.3201 41.9753 3.65838 41.9753 6.5325L41.9683 28.6277C41.9753 31.5088 39.637 33.8401 36.7559 33.8401Z" fill="white"/>
</mask>
<g mask="url(#mask3_1_139)">
<path opacity="0.75" d="M69.6798 33.8541L53.5276 33.8471L34.9676 1.32014L51.1198 1.32711L69.6798 33.8541Z" fill="white"/>
</g>
<path opacity="0.25" d="M37.3896 34.8701L6.7694 34.6196C3.88832 34.5987 1.5779 32.2465 1.59877 29.3654L1.77971 7.27018C1.80058 4.3891 4.15277 2.07866 7.03385 2.09954L37.654 2.35007C40.5351 2.37094 42.8456 4.72313 42.8247 7.60421L42.6437 29.6995C42.6159 32.5805 40.2637 34.891 37.3896 34.8701Z" fill="url(#paint0_linear_1_139)"/>
<path d="M36.7568 33.9515L6.1366 33.701C3.25552 33.6801 0.945083 31.3279 0.965961 28.4468L1.14689 6.35159C1.16777 3.47051 3.51996 1.16008 6.40104 1.18096L37.0212 1.43149C39.9023 1.45236 42.2128 3.80455 42.1919 6.68563L42.0109 28.7809C41.9901 31.655 39.6379 33.9724 36.7568 33.9515Z" fill="url(#paint1_linear_1_139)"/>
<path d="M36.7568 33.9515L6.1366 33.701C3.25552 33.6801 0.945083 31.3279 0.965961 28.4468L1.14689 6.35159C1.16777 3.47051 3.51996 1.16008 6.40104 1.18096L37.0212 1.43149C39.9023 1.45236 42.2128 3.80455 42.1919 6.68563L42.0109 28.7809C41.9901 31.655 39.6379 33.9724 36.7568 33.9515Z" stroke="url(#paint2_linear_1_139)" stroke-width="0.695913" stroke-miterlimit="10"/>
<g opacity="0.2">
<path d="M28.1285 10.7652L13.7439 10.6481L13.6391 23.5225L28.0237 23.6396L28.1285 10.7652Z" stroke="#8C8C8C" stroke-width="0.695913" stroke-miterlimit="10"/>
<path d="M34.7634 5.91897L20.9773 5.80675L20.9374 10.706L34.7235 10.8182L34.7634 5.91897Z" stroke="#8C8C8C" stroke-width="0.695913" stroke-miterlimit="10"/>
<path d="M20.9769 5.80768L7.19084 5.69545L7.15096 10.5947L20.937 10.7069L20.9769 5.80768Z" stroke="#8C8C8C" stroke-width="0.695913" stroke-miterlimit="10"/>
<path d="M34.6171 23.7002L20.8311 23.588L20.7912 28.4872L34.5773 28.5994L34.6171 23.7002Z" stroke="#8C8C8C" stroke-width="0.695913" stroke-miterlimit="10"/>
<path d="M20.8307 23.5817L7.04462 23.4696L7.00476 28.3688L20.7908 28.481L20.8307 23.5817Z" stroke="#8C8C8C" stroke-width="0.695913" stroke-miterlimit="10"/>
<path d="M34.7242 10.8124L41.7668 10.875" stroke="#8C8C8C" stroke-width="0.695913" stroke-miterlimit="10"/>
<path d="M34.6126 23.6937L41.6622 23.7494" stroke="#8C8C8C" stroke-width="0.695913" stroke-miterlimit="10"/>
<path d="M0.408737 10.534L7.45834 10.5897" stroke="#8C8C8C" stroke-width="0.695913" stroke-miterlimit="10"/>
<path d="M0.30481 23.4084L7.35442 23.4711" stroke="#8C8C8C" stroke-width="0.695913" stroke-miterlimit="10"/>
<path d="M0.359695 16.9712L13.6864 17.0825" stroke="#8C8C8C" stroke-width="0.695913" stroke-miterlimit="10"/>
<path d="M28.0712 17.2008L41.7111 17.3122" stroke="#8C8C8C" stroke-width="0.695913" stroke-miterlimit="10"/>
<path d="M6.99934 28.3634L6.96454 33.0608" stroke="#8C8C8C" stroke-width="0.695913" stroke-miterlimit="10"/>
<path d="M20.7849 28.4747L20.7501 33.1721" stroke="#8C8C8C" stroke-width="0.695913" stroke-miterlimit="10"/>
<path d="M34.5783 28.5929L34.5366 33.2834" stroke="#8C8C8C" stroke-width="0.695913" stroke-miterlimit="10"/>
<path d="M13.8959 28.4189L13.8542 33.339" stroke="#8C8C8C" stroke-width="0.695913" stroke-miterlimit="10"/>
<path d="M27.9807 28.5373L27.9389 33.4574" stroke="#8C8C8C" stroke-width="0.695913" stroke-miterlimit="10"/>
<path d="M7.22204 1L7.18724 5.69045" stroke="#8C8C8C" stroke-width="0.695913" stroke-miterlimit="10"/>
<path d="M21.0076 1.1113L20.9728 5.80176" stroke="#8C8C8C" stroke-width="0.695913" stroke-miterlimit="10"/>
<path d="M34.8006 1.22266L34.7588 5.91312" stroke="#8C8C8C" stroke-width="0.695913" stroke-miterlimit="10"/>
<path d="M14.1182 1.05568L14.0764 5.97579" stroke="#8C8C8C" stroke-width="0.695913" stroke-miterlimit="10"/>
<path d="M28.2034 1.16698L28.1617 6.08709" stroke="#8C8C8C" stroke-width="0.695913" stroke-miterlimit="10"/>
</g>
<path d="M28.5464 11.1759L14.1619 11.0589L14.0571 23.9333L28.4417 24.0503L28.5464 11.1759Z" stroke="white" stroke-width="0.695913" stroke-miterlimit="10"/>
<path d="M35.1809 6.32959L21.3948 6.21736L21.355 11.1166L35.141 11.2288L35.1809 6.32959Z" stroke="white" stroke-width="0.695913" stroke-miterlimit="10"/>
<path d="M21.3944 6.21815L7.60837 6.10606L7.56853 11.0053L21.3546 11.1174L21.3944 6.21815Z" stroke="white" stroke-width="0.695913" stroke-miterlimit="10"/>
<path d="M35.0351 24.1038L21.2491 23.9916L21.2092 28.8908L34.9952 29.0031L35.0351 24.1038Z" stroke="white" stroke-width="0.695913" stroke-miterlimit="10"/>
<path d="M21.2486 23.9925L7.4626 23.8802L7.42272 28.7795L21.2088 28.8917L21.2486 23.9925Z" stroke="white" stroke-width="0.695913" stroke-miterlimit="10"/>
<path d="M35.135 11.223L42.1846 11.2786" stroke="white" stroke-width="0.695913" stroke-miterlimit="10"/>
<path d="M35.0306 24.1043L42.0802 24.16" stroke="white" stroke-width="0.695913" stroke-miterlimit="10"/>
<path d="M0.826263 10.9446L7.87587 11.0003" stroke="white" stroke-width="0.695913" stroke-miterlimit="10"/>
<path d="M0.721878 23.819L7.76452 23.8817" stroke="white" stroke-width="0.695913" stroke-miterlimit="10"/>
<path d="M0.777664 17.3818L14.1044 17.4932" stroke="white" stroke-width="0.695913" stroke-miterlimit="10"/>
<path d="M28.4887 17.6115L42.1286 17.7228" stroke="white" stroke-width="0.695913" stroke-miterlimit="10"/>
<path d="M7.41662 28.7739L7.37486 33.4713" stroke="white" stroke-width="0.695913" stroke-miterlimit="10"/>
<path d="M21.2029 28.8852L21.1681 33.5826" stroke="white" stroke-width="0.695913" stroke-miterlimit="10"/>
<path d="M34.9954 28.9966L34.9537 33.694" stroke="white" stroke-width="0.695913" stroke-miterlimit="10"/>
<path d="M14.313 28.8296L14.2712 33.7497" stroke="white" stroke-width="0.695913" stroke-miterlimit="10"/>
<path d="M28.3987 28.9479L28.3569 33.868" stroke="white" stroke-width="0.695913" stroke-miterlimit="10"/>
<path d="M7.63932 1.41058L7.59756 6.10103" stroke="white" stroke-width="0.695913" stroke-miterlimit="10"/>
<path d="M21.4256 1.52196L21.3908 6.21241" stroke="white" stroke-width="0.695913" stroke-miterlimit="10"/>
<path d="M35.2186 1.63332L35.1768 6.32378" stroke="white" stroke-width="0.695913" stroke-miterlimit="10"/>
<path d="M14.5362 1.46625L14.4944 6.38635" stroke="white" stroke-width="0.695913" stroke-miterlimit="10"/>
<path d="M28.6214 1.57764L28.5796 6.49775" stroke="white" stroke-width="0.695913" stroke-miterlimit="10"/>
<path d="M28.5464 11.4055L14.1619 11.2884L14.0571 24.1628L28.4417 24.2799L28.5464 11.4055Z" stroke="white" stroke-width="0.695913" stroke-miterlimit="10"/>
<path d="M35.1809 6.55928L21.3948 6.44705L21.355 11.3463L35.141 11.4585L35.1809 6.55928Z" stroke="white" stroke-width="0.695913" stroke-miterlimit="10"/>
<path d="M21.3872 6.44786L7.60117 6.33563L7.56128 11.2349L21.3473 11.3471L21.3872 6.44786Z" stroke="white" stroke-width="0.695913" stroke-miterlimit="10"/>
<path d="M35.0351 24.3404L21.2491 24.2281L21.2092 29.1274L34.9952 29.2396L35.0351 24.3404Z" stroke="white" stroke-width="0.695913" stroke-miterlimit="10"/>
<path d="M21.2414 24.222L7.4554 24.1098L7.41554 29.009L21.2016 29.1212L21.2414 24.222Z" stroke="white" stroke-width="0.695913" stroke-miterlimit="10"/>
<path d="M35.135 11.4526L42.1846 11.5152" stroke="white" stroke-width="0.695913" stroke-miterlimit="10"/>
<path d="M35.0306 24.3339L42.0732 24.3896" stroke="white" stroke-width="0.695913" stroke-miterlimit="10"/>
<path d="M0.826263 11.1743L7.8689 11.2299" stroke="white" stroke-width="0.695913" stroke-miterlimit="10"/>
<path d="M0.721878 24.0486L7.76452 24.1112" stroke="white" stroke-width="0.695913" stroke-miterlimit="10"/>
<path d="M0.770477 17.6115L14.1042 17.7228" stroke="white" stroke-width="0.695913" stroke-miterlimit="10"/>
<path d="M28.4887 17.8411L42.1286 17.9525" stroke="white" stroke-width="0.695913" stroke-miterlimit="10"/>
<path d="M7.41662 29.0035L7.37486 33.7009" stroke="white" stroke-width="0.695913" stroke-miterlimit="10"/>
<path d="M21.2029 29.1149L21.1681 33.8123" stroke="white" stroke-width="0.695913" stroke-miterlimit="10"/>
<path d="M34.9884 29.2332L34.9537 33.9237" stroke="white" stroke-width="0.695913" stroke-miterlimit="10"/>
<path d="M14.306 29.0592L14.2712 33.9793" stroke="white" stroke-width="0.695913" stroke-miterlimit="10"/>
<path d="M28.3915 29.1776L28.3497 34.0977" stroke="white" stroke-width="0.695913" stroke-miterlimit="10"/>
<path d="M7.63932 1.64023L7.59756 6.33068" stroke="white" stroke-width="0.695913" stroke-miterlimit="10"/>
<path d="M21.4256 1.75153L21.3908 6.44199" stroke="white" stroke-width="0.695913" stroke-miterlimit="10"/>
<path d="M35.2116 1.86292L35.1768 6.55337" stroke="white" stroke-width="0.695913" stroke-miterlimit="10"/>
<path d="M14.5292 1.69591L14.4944 6.61601" stroke="white" stroke-width="0.695913" stroke-miterlimit="10"/>
<path d="M28.6144 1.80721L28.5796 6.72732" stroke="white" stroke-width="0.695913" stroke-miterlimit="10"/>
<mask id="mask4_1_139" style="mask-type:luminance" maskUnits="userSpaceOnUse" x="0" y="1" width="43" height="33">
<path d="M36.7568 33.9515L6.1366 33.701C3.25552 33.6801 0.945083 31.3279 0.965961 28.4468L1.14689 6.35159C1.16777 3.47051 3.51996 1.16008 6.40104 1.18096L37.0212 1.43149C39.9023 1.45236 42.2128 3.80455 42.1919 6.68563L42.0109 28.7809C41.9901 31.655 39.6379 33.9724 36.7568 33.9515Z" fill="white"/>
</mask>
<g mask="url(#mask4_1_139)">
<path opacity="0.5" d="M31.1822 33.9028L22.3162 33.8332L4.00674 1.16702L12.8727 1.23662L31.1822 33.9028Z" fill="white"/>
</g>
<mask id="mask5_1_139" style="mask-type:luminance" maskUnits="userSpaceOnUse" x="0" y="1" width="43" height="33">
<path d="M36.7568 33.9515L6.1366 33.701C3.25552 33.6801 0.945083 31.3279 0.965961 28.4468L1.14689 6.35159C1.16777 3.47051 3.51996 1.16008 6.40104 1.18096L37.0212 1.43149C39.9023 1.45236 42.2128 3.80455 42.1919 6.68563L42.0109 28.7809C41.9901 31.655 39.6379 33.9724 36.7568 33.9515Z" fill="white"/>
</mask>
<g mask="url(#mask5_1_139)">
<path opacity="0.5" d="M13.9369 33.7636L5.07797 33.694L-13.2315 1.02092L-4.36558 1.09747L13.9369 33.7636Z" fill="white"/>
</g>
<mask id="mask6_1_139" style="mask-type:luminance" maskUnits="userSpaceOnUse" x="0" y="1" width="43" height="33">
<path d="M36.7568 33.9515L6.1366 33.701C3.25552 33.6801 0.945083 31.3279 0.965961 28.4468L1.14689 6.35159C1.16777 3.47051 3.51996 1.16008 6.40104 1.18096L37.0212 1.43149C39.9023 1.45236 42.2128 3.80455 42.1919 6.68563L42.0109 28.7809C41.9901 31.655 39.6379 33.9724 36.7568 33.9515Z" fill="white"/>
</mask>
<g mask="url(#mask6_1_139)">
<path opacity="0.75" d="M43.5345 34.0072L27.3754 33.8749L9.07286 1.20876L25.225 1.33403L43.5345 34.0072Z" fill="white"/>
</g>
<mask id="mask7_1_139" style="mask-type:luminance" maskUnits="userSpaceOnUse" x="0" y="1" width="43" height="33">
<path d="M36.7568 33.9515L6.1366 33.701C3.25552 33.6801 0.945083 31.3279 0.965961 28.4468L1.14689 6.35159C1.16777 3.47051 3.51996 1.16008 6.40104 1.18096L37.0212 1.43149C39.9023 1.45236 42.2128 3.80455 42.1919 6.68563L42.0109 28.7809C41.9901 31.655 39.6379 33.9724 36.7568 33.9515Z" fill="white"/>
</mask>
<g mask="url(#mask7_1_139)">
<path opacity="0.75" d="M69.6798 34.2159L53.5207 34.0837L35.2182 1.41756L51.3704 1.54978L69.6798 34.2159Z" fill="white"/>
</g>
<defs>
<linearGradient id="paint0_linear_1_139" x1="-0.7878" y1="18.373" x2="42.8831" y2="18.5898" gradientUnits="userSpaceOnUse">
<stop stop-color="#2B2B2B"/>
<stop offset="1" stop-color="#636363"/>
</linearGradient>
<linearGradient id="paint1_linear_1_139" x1="-1.41654" y1="17.4522" x2="42.2543" y2="17.669" gradientUnits="userSpaceOnUse">
<stop stop-color="#CFCFCF"/>
<stop offset="1" stop-color="#9E9E9E"/>
</linearGradient>
<linearGradient id="paint2_linear_1_139" x1="0.676477" y1="17.4626" x2="42.487" y2="17.6701" gradientUnits="userSpaceOnUse">
<stop stop-color="white"/>
<stop offset="0.5851" stop-color="#9E9E9E"/>
</linearGradient>
</defs>
</svg>
