<svg width="18" height="20" viewBox="0 0 18 20" fill="none" xmlns="http://www.w3.org/2000/svg">
<path d="M14.4709 18.97C13.4093 19.9992 12.2501 19.8367 11.1343 19.3492C9.95343 18.8508 8.8701 18.8292 7.62426 19.3492C6.06426 20.0208 5.24093 19.8258 4.30926 18.97C-0.977404 13.5208 -0.197403 5.2225 5.80426 4.91917C7.26676 4.995 8.2851 5.72083 9.14093 5.78583C10.4193 5.52583 11.6434 4.77833 13.0084 4.87583C14.6443 5.00583 15.8793 5.65583 16.6918 6.82583C13.3118 8.85167 14.1134 13.3042 17.2118 14.55C16.5943 16.175 15.7926 17.7892 14.4601 18.9808L14.4709 18.97ZM9.0326 4.85417C8.8701 2.43833 10.8309 0.445 13.0843 0.25C13.3984 3.045 10.5493 5.125 9.0326 4.85417Z" fill="white"/>
</svg>
