<svg width="17" height="15" viewBox="0 0 17 15" fill="none" xmlns="http://www.w3.org/2000/svg">
<path d="M8.49976 6.08946C7.19316 6.08946 6.08905 7.19357 6.08905 8.50018C6.08905 9.80678 7.19316 10.9109 8.49976 10.9109C9.80637 10.9109 10.9105 9.80678 10.9105 8.50018C10.9105 7.19357 9.80637 6.08946 8.49976 6.08946Z" fill="#555555"/>
<path d="M14.9289 2.87485H12.8508L10.6756 0.699578C10.6011 0.624811 10.5125 0.565518 10.415 0.52511C10.3175 0.484702 10.213 0.463978 10.1075 0.464131H6.89317C6.78763 0.463978 6.68309 0.484702 6.58559 0.52511C6.48809 0.565518 6.39954 0.624811 6.32505 0.699578L4.14978 2.87485H2.07174C1.1854 2.87485 0.4646 3.59565 0.4646 4.48199V13.3213C0.4646 14.2076 1.1854 14.9284 2.07174 14.9284H14.9289C15.8152 14.9284 16.536 14.2076 16.536 13.3213V4.48199C16.536 3.59565 15.8152 2.87485 14.9289 2.87485ZM8.50031 12.5177C6.32264 12.5177 4.48246 10.6775 4.48246 8.49985C4.48246 6.32217 6.32264 4.48199 8.50031 4.48199C10.678 4.48199 12.5182 6.32217 12.5182 8.49985C12.5182 10.6775 10.678 12.5177 8.50031 12.5177Z" fill="#555555"/>
</svg>
