<svg width="24" height="24" viewBox="0 0 24 24" fill="none" xmlns="http://www.w3.org/2000/svg">
<circle cx="12" cy="12" r="12" fill="#35DFF6"/>
<path d="M12.0004 18.4005C8.47168 18.4005 5.60059 15.5298 5.60059 12.0009C5.60059 8.47119 8.47168 5.6001 12.0004 5.6001C15.5295 5.6001 18.4008 8.47119 18.4008 12.0009C18.4008 15.5298 15.5295 18.4005 12.0004 18.4005ZM12.0004 7.73369C9.64766 7.73369 7.7334 9.64814 7.7334 12.0009C7.7334 14.3532 9.64766 16.2669 12.0004 16.2669C14.3531 16.2669 16.2672 14.3532 16.2672 12.0009C16.2672 9.64814 14.3531 7.73369 12.0004 7.73369Z" fill="url(#paint0_linear_685_295)"/>
<defs>
<linearGradient id="paint0_linear_685_295" x1="8.80063" y1="8.80019" x2="8.80063" y2="8.80019" gradientUnits="userSpaceOnUse">
<stop stop-color="white"/>
<stop offset="1" stop-color="white" stop-opacity="0"/>
</linearGradient>
</defs>
</svg>
