<svg width="124" height="129" viewBox="0 0 124 129" fill="none" xmlns="http://www.w3.org/2000/svg">
<circle opacity="0.1" cx="62" cy="67" r="62" fill="#F6D935"/>
<path d="M29.625 92.125C29.625 92.7383 29.8686 93.3265 30.3023 93.7602C30.736 94.1939 31.3242 94.4375 31.9375 94.4375H92.0625C92.6758 94.4375 93.264 94.1939 93.6977 93.7602C94.1314 93.3265 94.375 92.7383 94.375 92.125V64.0859H29.625V92.125ZM39.1641 72.1797C39.1641 71.873 39.2859 71.5789 39.5027 71.3621C39.7196 71.1453 40.0137 71.0234 40.3203 71.0234H53.6172C53.9238 71.0234 54.2179 71.1453 54.4348 71.3621C54.6516 71.5789 54.7734 71.873 54.7734 72.1797V81.4297C54.7734 81.7363 54.6516 82.0304 54.4348 82.2473C54.2179 82.4641 53.9238 82.5859 53.6172 82.5859H40.3203C40.0137 82.5859 39.7196 82.4641 39.5027 82.2473C39.2859 82.0304 39.1641 81.7363 39.1641 81.4297V72.1797ZM92.0625 43.5625H31.9375C31.3242 43.5625 30.736 43.8061 30.3023 44.2398C29.8686 44.6735 29.625 45.2617 29.625 45.875V55.4141H94.375V45.875C94.375 45.2617 94.1314 44.6735 93.6977 44.2398C93.264 43.8061 92.6758 43.5625 92.0625 43.5625Z" fill="#E3B200"/>
<circle cx="102" cy="17" r="17" fill="#FF3F3F"/>
<path d="M109.922 11.0698L95.0801 24.1742" stroke="white" stroke-width="1.76" stroke-linecap="round"/>
<path d="M110.145 23.9488L94.9999 11.1965" stroke="white" stroke-width="1.76" stroke-linecap="round"/>
</svg>
