<svg width="23" height="23" viewBox="0 0 23 23" fill="none" xmlns="http://www.w3.org/2000/svg">
<g filter="url(#filter0_b_541_375)">
<path d="M10.3255 20.8486L10.3246 20.8476C7.35053 17.9083 4.93523 15.5167 3.25533 13.2766C1.58448 11.0486 0.7 9.04525 0.7 6.89373C0.7 3.35022 3.22432 0.7 6.325 0.7C8.09099 0.7 9.81607 1.60012 10.95 3.04015L11.5 3.73854L12.05 3.04015C13.1839 1.60012 14.909 0.7 16.675 0.7C19.7757 0.7 22.3 3.35022 22.3 6.89373C22.3 9.04525 21.4155 11.0486 19.7447 13.2766C18.0648 15.5167 15.6495 17.9083 12.6754 20.8476L12.6745 20.8486L11.5 22.0139L10.3255 20.8486Z" stroke="#8B8B8B" stroke-width="1.4"/>
</g>
<defs>
<filter id="filter0_b_541_375" x="-1.11475" y="-1.11475" width="25.2295" height="25.2295" filterUnits="userSpaceOnUse" color-interpolation-filters="sRGB">
<feFlood flood-opacity="0" result="BackgroundImageFix"/>
<feGaussianBlur in="BackgroundImageFix" stdDeviation="0.557377"/>
<feComposite in2="SourceAlpha" operator="in" result="effect1_backgroundBlur_541_375"/>
<feBlend mode="normal" in="SourceGraphic" in2="effect1_backgroundBlur_541_375" result="shape"/>
</filter>
</defs>
</svg>
