<svg width="18" height="18" viewBox="0 0 18 18" fill="none" xmlns="http://www.w3.org/2000/svg">
<path fill-rule="evenodd" clip-rule="evenodd" d="M1.521 8.4375C1.66288 6.55106 2.51241 4.78791 3.89937 3.50138C5.28632 2.21485 7.10822 1.49997 9 1.5C8.3775 1.5 7.8225 1.773 7.365 2.19075C6.91125 2.60625 6.528 3.18675 6.2175 3.87225C5.9055 4.56225 5.6625 5.36925 5.49825 6.2445C5.36503 6.96866 5.28531 7.70164 5.25975 8.4375H1.521ZM1.521 9.5625H5.25975C5.28675 10.314 5.367 11.0535 5.49825 11.7555C5.66325 12.6308 5.9055 13.4378 6.2175 14.1278C6.528 14.8133 6.91125 15.3938 7.365 15.8093C7.8225 16.227 8.3775 16.5 9 16.5C5.0475 16.5 1.80825 13.4423 1.521 9.5625Z" fill="#E3B200"/>
<path d="M8.99995 2.54614C8.7937 2.54614 8.52745 2.63389 8.2177 2.91739C7.9057 3.20314 7.59295 3.65089 7.31695 4.26064C7.04245 4.86664 6.8197 5.59789 6.6667 6.41539C6.5467 7.05889 6.4717 7.74139 6.4447 8.43739H11.5552C11.5308 7.75887 11.4566 7.08305 11.3332 6.41539C11.1802 5.59789 10.9582 4.86664 10.683 4.26064C10.407 3.65089 10.095 3.20314 9.78295 2.91814C9.47245 2.63389 9.2062 2.54614 8.99995 2.54614ZM6.6667 11.5844C6.8197 12.4019 7.04245 13.1331 7.31695 13.7391C7.59295 14.3489 7.9057 14.7966 8.21695 15.0816C8.52745 15.3659 8.79445 15.4536 8.99995 15.4536C9.2062 15.4536 9.47245 15.3659 9.7822 15.0824C10.095 14.7966 10.407 14.3489 10.683 13.7391C10.9575 13.1331 11.1802 12.4019 11.3332 11.5844C11.454 10.9409 11.529 10.2584 11.5552 9.56239H6.4447C6.47095 10.2584 6.54595 10.9409 6.6667 11.5844Z" fill="#E3B200"/>
<path d="M9 1.5C9.62325 1.5 10.1775 1.773 10.635 2.19075C11.0888 2.60625 11.4727 3.18675 11.7825 3.87225C12.0952 4.56225 12.3375 5.36925 12.5018 6.2445C12.633 6.9465 12.7132 7.686 12.7402 8.4375H16.479C16.3371 6.55106 15.4876 4.78791 14.1006 3.50138C12.7137 2.21485 10.8918 1.49997 9 1.5ZM12.5018 11.7555C12.3375 12.6308 12.0952 13.4378 11.7825 14.1278C11.4727 14.8133 11.0888 15.3938 10.635 15.8093C10.1775 16.227 9.62325 16.5 9 16.5C12.9525 16.5 16.1917 13.4423 16.479 9.5625H12.7402C12.7147 10.2984 12.635 11.0313 12.5018 11.7555Z" fill="#E3B200"/>
</svg>
