<svg width="20" height="20" viewBox="0 0 20 20" fill="none" xmlns="http://www.w3.org/2000/svg">
<path d="M5.33325 3.96664C6.57518 2.74955 8.24725 2.07175 9.98611 2.08053C11.725 2.08931 13.3901 2.78397 14.6197 4.01354C15.8493 5.24311 16.5439 6.90825 16.5527 8.64711C16.5615 10.386 15.8837 12.058 14.6666 13.3L11.1782 16.7883C10.8657 17.1008 10.4419 17.2763 9.99991 17.2763C9.55797 17.2763 9.13413 17.1008 8.82158 16.7883L5.33325 13.3C4.09565 12.0622 3.40039 10.3836 3.40039 8.6333C3.40039 6.88299 4.09565 5.20436 5.33325 3.96664Z" stroke="#535A50" stroke-width="1.5" stroke-linejoin="round"/>
<path d="M10 11.1333C11.3807 11.1333 12.5 10.014 12.5 8.6333C12.5 7.25259 11.3807 6.1333 10 6.1333C8.61929 6.1333 7.5 7.25259 7.5 8.6333C7.5 10.014 8.61929 11.1333 10 11.1333Z" stroke="#535A50" stroke-width="1.5" stroke-linecap="round" stroke-linejoin="round"/>
</svg>
