<svg width="19" height="17" viewBox="0 0 19 17" fill="none" xmlns="http://www.w3.org/2000/svg">
<g filter="url(#filter0_b_243_832)">
<path d="M8.22554 15.2991L8.22482 15.2985C5.93645 13.1983 4.07699 11.4886 2.78378 9.88738C1.49625 8.29316 0.820801 6.8665 0.820801 5.34075C0.820801 2.84447 2.74346 0.915039 5.18778 0.915039C6.57412 0.915039 7.91468 1.57081 8.78852 2.60124L9.16986 3.05092L9.5512 2.60124C10.425 1.57081 11.7656 0.915039 13.1519 0.915039C15.5963 0.915039 17.5189 2.84447 17.5189 5.34075C17.5189 6.8665 16.8435 8.29316 15.5559 9.88738C14.2627 11.4886 12.4033 13.1983 10.1149 15.2985L10.1142 15.2991L9.16986 16.1691L8.22554 15.2991Z" stroke="#414141"/>
</g>
<defs>
<filter id="filter0_b_243_832" x="-0.723501" y="-0.629262" width="19.7866" height="18.5226" filterUnits="userSpaceOnUse" color-interpolation-filters="sRGB">
<feFlood flood-opacity="0" result="BackgroundImageFix"/>
<feGaussianBlur in="BackgroundImageFix" stdDeviation="0.522151"/>
<feComposite in2="SourceAlpha" operator="in" result="effect1_backgroundBlur_243_832"/>
<feBlend mode="normal" in="SourceGraphic" in2="effect1_backgroundBlur_243_832" result="shape"/>
</filter>
</defs>
</svg>
