<svg width="10" height="12" viewBox="0 0 10 12" fill="none" xmlns="http://www.w3.org/2000/svg">
<path d="M5 0.75C3.90638 0.75129 2.85792 1.1863 2.08461 1.95961C1.3113 2.73292 0.876293 3.78138 0.875003 4.875C0.873997 5.76866 1.16589 6.63802 1.706 7.35C1.706 7.35 1.8185 7.49813 1.83688 7.5195L5 11.25L8.16463 7.51763C8.18113 7.49775 8.294 7.35 8.294 7.35L8.29438 7.34888C8.83412 6.63716 9.12587 5.76823 9.125 4.875C9.12371 3.78138 8.6887 2.73292 7.91539 1.95961C7.14208 1.1863 6.09362 0.75129 5 0.75ZM5 6.375C4.70333 6.375 4.41332 6.28703 4.16665 6.1222C3.91997 5.95738 3.72771 5.72311 3.61418 5.44903C3.50065 5.17494 3.47095 4.87334 3.52882 4.58236C3.5867 4.29139 3.72956 4.02412 3.93934 3.81434C4.14912 3.60456 4.4164 3.4617 4.70737 3.40382C4.99834 3.34594 5.29994 3.37565 5.57403 3.48918C5.84812 3.60271 6.08238 3.79497 6.24721 4.04164C6.41203 4.28832 6.5 4.57833 6.5 4.875C6.49951 5.27267 6.34131 5.65391 6.06011 5.93511C5.77892 6.21631 5.39767 6.3745 5 6.375Z" fill="#E3B200"/>
</svg>
