<svg width="16" height="16" viewBox="0 0 16 16" fill="none" xmlns="http://www.w3.org/2000/svg">
<g filter="url(#filter0_b_35_245)">
<path d="M8 16L6.84 14.849C2.72 10.7771 0 8.08283 0 4.79564C0 2.10136 1.936 0 4.4 0C5.792 0 7.128 0.706267 8 1.81362C8.872 0.706267 10.208 0 11.6 0C14.064 0 16 2.10136 16 4.79564C16 8.08283 13.28 10.7771 9.16 14.849L8 16Z" fill="#2B2B2B" fill-opacity="0.1"/>
<path d="M8.96371 14.6512L8 15.6074L7.03629 14.6512L7.0359 14.6508C4.97081 12.6098 3.27786 10.9342 2.09796 9.36086C0.921653 7.79233 0.278689 6.35517 0.278689 4.79564C0.278689 2.23255 2.1117 0.278689 4.4 0.278689C5.69844 0.278689 6.95664 0.939115 7.78105 1.98604L8 2.26409L8.21895 1.98604C9.04336 0.939115 10.3016 0.278689 11.6 0.278689C13.8883 0.278689 15.7213 2.23255 15.7213 4.79564C15.7213 6.35517 15.0783 7.79233 13.902 9.36086C12.7221 10.9342 11.0292 12.6098 8.9641 14.6508L8.96371 14.6512Z" stroke="#2B2B2B" stroke-opacity="0.68" stroke-width="0.557377"/>
</g>
<defs>
<filter id="filter0_b_35_245" x="-1.11475" y="-1.11475" width="18.2295" height="18.2295" filterUnits="userSpaceOnUse" color-interpolation-filters="sRGB">
<feFlood flood-opacity="0" result="BackgroundImageFix"/>
<feGaussianBlur in="BackgroundImageFix" stdDeviation="0.557377"/>
<feComposite in2="SourceAlpha" operator="in" result="effect1_backgroundBlur_35_245"/>
<feBlend mode="normal" in="SourceGraphic" in2="effect1_backgroundBlur_35_245" result="shape"/>
</filter>
</defs>
</svg>
