<svg width="56" height="56" viewBox="0 0 56 56" fill="none" xmlns="http://www.w3.org/2000/svg">
<path d="M28 0L34.7008 0.813629L41.0122 3.20723L46.5674 7.0417L51.0435 12.0942L54.1805 18.0711L55.7958 24.625V31.375L54.1805 37.9289L51.0435 43.9058L46.5674 48.9583L41.0122 52.7928L34.7008 55.1864L28 56L21.2992 55.1864L14.9878 52.7928L9.43257 48.9583L4.95645 43.9058L1.81955 37.9289L0.204151 31.375V24.625L1.81955 18.0711L4.95645 12.0942L9.43257 7.0417L14.9878 3.20723L21.2992 0.813629L28 0Z" fill="#1E272E"/>
<path d="M33.6 31.6667C34.2365 31.6667 34.847 31.9301 35.2971 32.3989C35.7471 32.8677 36 33.5036 36 34.1667V34.7625C36 37.7433 32.632 40 28 40C23.368 40 20 37.8608 20 34.7625V34.1667C20 33.5036 20.2529 32.8677 20.7029 32.3989C21.153 31.9301 21.7635 31.6667 22.4 31.6667H33.6ZM33.6 32.9167H22.4C22.1018 32.9167 21.8143 33.0323 21.5935 33.241C21.3727 33.4498 21.2344 33.7367 21.2056 34.0458L21.2 34.1667V34.7625C21.2 36.9908 23.9112 38.75 28 38.75C31.9408 38.75 34.684 36.9958 34.7968 34.8967L34.8 34.7625V34.1667C34.8 33.8561 34.689 33.5566 34.4886 33.3266C34.2882 33.0966 34.0128 32.9525 33.716 32.9225L33.6 32.9167ZM28 20C28.6303 20 29.2545 20.1293 29.8369 20.3806C30.4192 20.6319 30.9484 21.0002 31.3941 21.4645C31.8398 21.9288 32.1934 22.48 32.4346 23.0866C32.6758 23.6932 32.8 24.3434 32.8 25C32.8 25.6566 32.6758 26.3068 32.4346 26.9134C32.1934 27.52 31.8398 28.0712 31.3941 28.5355C30.9484 28.9998 30.4192 29.3681 29.8369 29.6194C29.2545 29.8707 28.6303 30 28 30C26.727 30 25.5061 29.4732 24.6059 28.5355C23.7057 27.5979 23.2 26.3261 23.2 25C23.2 23.6739 23.7057 22.4021 24.6059 21.4645C25.5061 20.5268 26.727 20 28 20ZM28 21.25C27.0452 21.25 26.1295 21.6451 25.4544 22.3483C24.7793 23.0516 24.4 24.0054 24.4 25C24.4 25.9946 24.7793 26.9484 25.4544 27.6516C26.1295 28.3549 27.0452 28.75 28 28.75C28.9548 28.75 29.8705 28.3549 30.5456 27.6516C31.2207 26.9484 31.6 25.9946 31.6 25C31.6 24.0054 31.2207 23.0516 30.5456 22.3483C29.8705 21.6451 28.9548 21.25 28 21.25Z" fill="#F6D935"/>
</svg>
