<svg width="29" height="25" viewBox="0 0 29 25" fill="none" xmlns="http://www.w3.org/2000/svg">
<g clip-path="url(#clip0_541_814)">
<path d="M8.01709 21.9834V5.21853L11.181 1H24.8366L28.0005 5.21853V21.9834C28.0005 22.7801 27.3546 23.426 26.5579 23.426H9.45969C8.66296 23.426 8.01709 22.7801 8.01709 21.9834Z" stroke="#1E272E" stroke-width="2" stroke-linecap="round" stroke-linejoin="round"/>
<path d="M9.01709 4.88501H27.0005" stroke="#1E272E" stroke-width="2" stroke-linecap="round" stroke-linejoin="round"/>
<path d="M22.8934 9.77002C22.8934 12.468 20.7063 14.6552 18.0082 14.6552C15.3102 14.6552 13.123 12.468 13.123 9.77002" stroke="#1E272E" stroke-width="2" stroke-linecap="round" stroke-linejoin="round"/>
</g>
<g clip-path="url(#clip1_541_814)">
<path d="M17 16C17 20.4183 13.4183 24 9 24C4.58172 24 1 20.4183 1 16C1 11.5817 4.58172 8 9 8C13.4183 8 17 11.5817 17 16Z" fill="white" stroke="#1E272E" stroke-width="2"/>
<g clip-path="url(#clip2_541_814)">
<path d="M9.08203 12.752V19.4119" stroke="#1E272E" stroke-width="2" stroke-linecap="round"/>
<path d="M12.4119 16.082H5.75195" stroke="#1E272E" stroke-width="2" stroke-linecap="round"/>
</g>
</g>
<defs>
<clipPath id="clip0_541_814">
<rect width="21.9834" height="24.426" fill="white" transform="translate(7.01709)"/>
</clipPath>
<clipPath id="clip1_541_814">
<rect width="18" height="18" fill="white" transform="translate(0 7)"/>
</clipPath>
<clipPath id="clip2_541_814">
<rect width="6.65998" height="6.65998" fill="white" transform="translate(5.75195 12.752)"/>
</clipPath>
</defs>
</svg>
