<svg width="16" height="16" viewBox="0 0 16 16" fill="none" xmlns="http://www.w3.org/2000/svg">
<g opacity="0.78">
<path d="M13.9999 14L11.1046 11.1047M11.1046 11.1047C11.5998 10.6094 11.9927 10.0215 12.2607 9.37439C12.5287 8.72731 12.6667 8.03377 12.6667 7.33336C12.6667 6.63296 12.5287 5.93942 12.2607 5.29233C11.9927 4.64525 11.5998 4.05729 11.1046 3.56203C10.6093 3.06677 10.0213 2.67391 9.37426 2.40588C8.72717 2.13785 8.03363 1.99989 7.33323 1.99989C6.63283 1.99989 5.93928 2.13785 5.2922 2.40588C4.64511 2.67391 4.05715 3.06677 3.56189 3.56203C2.56167 4.56225 1.99976 5.91884 1.99976 7.33336C1.99976 8.74789 2.56167 10.1045 3.56189 11.1047C4.56211 12.1049 5.9187 12.6668 7.33323 12.6668C8.74775 12.6668 10.1043 12.1049 11.1046 11.1047Z" stroke="black" stroke-linecap="round" stroke-linejoin="round"/>
</g>
</svg>
