<svg width="15" height="16" viewBox="0 0 15 16" fill="none" xmlns="http://www.w3.org/2000/svg">
<path d="M4.73468 4.66671C4.74268 3.21671 4.80668 2.43137 5.31935 1.91937C5.90468 1.33337 6.84801 1.33337 8.73335 1.33337H9.40001C11.2853 1.33337 12.2287 1.33337 12.814 1.91937C13.4 2.50471 13.4 3.44804 13.4 5.33337V10.6667C13.4 12.552 13.4 13.4954 12.814 14.0807C12.2287 14.6667 11.2853 14.6667 9.40001 14.6667H8.73335C6.84735 14.6667 5.90468 14.6667 5.31935 14.0807C4.80668 13.5687 4.74268 12.7834 4.73468 11.3334" stroke="white" stroke-width="1.5" stroke-linecap="round"/>
<path opacity="0.5" d="M4.73336 13C3.16202 13 2.37602 13 1.88802 12.512C1.40002 12.0233 1.40002 11.238 1.40002 9.66667V6.33333C1.40002 4.762 1.40002 3.976 1.88802 3.488C2.37602 3 3.16202 3 4.73336 3" stroke="white" stroke-width="1.5"/>
<path d="M9.40002 8.00008H3.40002M3.40002 8.00008L4.73336 9.33341M3.40002 8.00008L4.73336 6.66675" stroke="white" stroke-width="1.5" stroke-linecap="round" stroke-linejoin="round"/>
</svg>
