<svg width="18" height="18" viewBox="0 0 18 18" fill="none" xmlns="http://www.w3.org/2000/svg">
<g clip-path="url(#clip0_685_357)">
<path d="M0.384067 8.89222C0.383645 10.4046 0.781895 11.8813 1.53916 13.1828L0.311646 17.63L4.89827 16.4367C6.16688 17.1219 7.58825 17.481 9.03265 17.4811H9.03644C13.8047 17.4811 17.6861 13.6311 17.6882 8.89899C17.6891 6.60594 16.7899 4.44971 15.1563 2.82748C13.5229 1.20538 11.3506 0.311593 9.03609 0.310547C4.26729 0.310547 0.386106 4.16031 0.384138 8.89222" fill="url(#paint0_linear_685_357)"/>
<path d="M0.0752344 8.88949C0.0747422 10.4563 0.487266 11.9858 1.27153 13.334L0 17.9405L4.75109 16.7044C6.06016 17.4126 7.53405 17.786 9.03382 17.7866H9.03769C13.977 17.7866 17.9979 13.7981 18 8.8966C18.0008 6.52116 17.0693 4.28742 15.3773 2.60707C13.6851 0.92693 11.4351 0.000976744 9.03769 0C4.09753 0 0.0772031 3.98791 0.0752344 8.88949ZM2.90468 13.1018L2.72728 12.8223C1.98155 11.6458 1.58794 10.2862 1.5885 8.89005C1.59005 4.81598 4.93158 1.5014 9.0405 1.5014C11.0303 1.50223 12.9004 2.27191 14.3069 3.66837C15.7134 5.06498 16.4873 6.92149 16.4868 8.89605C16.485 12.9701 13.1434 16.2851 9.03769 16.2851H9.03473C7.69788 16.2844 6.38677 15.9282 5.24334 15.255L4.97123 15.0949L2.15184 15.8284L2.90468 13.1018Z" fill="url(#paint1_linear_685_357)"/>
<path d="M6.79763 5.17304C6.62986 4.80306 6.45331 4.79559 6.29377 4.78911C6.16313 4.78352 6.01378 4.78394 5.86458 4.78394C5.71524 4.78394 5.47259 4.83969 5.26749 5.0619C5.06217 5.28431 4.48364 5.8218 4.48364 6.91499C4.48364 8.00818 5.28612 9.06473 5.39799 9.21313C5.50999 9.36125 6.94718 11.6764 9.22334 12.5671C11.115 13.3072 11.5 13.16 11.9105 13.1229C12.3212 13.0859 13.2355 12.5855 13.422 12.0667C13.6087 11.5479 13.6087 11.1032 13.5528 11.0103C13.4968 10.9177 13.3474 10.8621 13.1235 10.751C12.8996 10.6399 11.7985 10.1023 11.5933 10.0282C11.388 9.95406 11.2387 9.91708 11.0894 10.1396C10.94 10.3617 10.5112 10.8621 10.3805 11.0103C10.2499 11.1588 10.1192 11.1773 9.89531 11.0662C9.67123 10.9547 8.95003 10.7203 8.0944 9.96341C7.42868 9.37443 6.97924 8.64711 6.8486 8.42462C6.71796 8.20248 6.83461 8.08206 6.9469 7.97134C7.04752 7.87178 7.17092 7.71187 7.28299 7.58218C7.39465 7.45241 7.43192 7.35983 7.50659 7.21164C7.58133 7.06331 7.54392 6.93355 7.48803 6.82241C7.43192 6.71127 6.99675 5.61236 6.79763 5.17304Z" fill="white"/>
</g>
<defs>
<linearGradient id="paint0_linear_685_357" x1="869.139" y1="1732.25" x2="869.139" y2="0.310547" gradientUnits="userSpaceOnUse">
<stop stop-color="#1FAF38"/>
<stop offset="1" stop-color="#60D669"/>
</linearGradient>
<linearGradient id="paint1_linear_685_357" x1="900" y1="1794.05" x2="900" y2="0" gradientUnits="userSpaceOnUse">
<stop stop-color="#F9F9F9"/>
<stop offset="1" stop-color="white"/>
</linearGradient>
<clipPath id="clip0_685_357">
<rect width="18" height="18" fill="white"/>
</clipPath>
</defs>
</svg>
