<svg width="18" height="18" viewBox="0 0 18 18" fill="none" xmlns="http://www.w3.org/2000/svg">
<path d="M14.4225 11.4451L12.5175 11.2276C12.2935 11.2013 12.0665 11.2261 11.8534 11.3001C11.6404 11.3741 11.4469 11.4955 11.2875 11.6551L9.90753 13.0351C7.77858 11.952 6.04808 10.2215 4.96503 8.09257L6.35253 6.70507C6.67503 6.38257 6.83253 5.93257 6.78003 5.47507L6.56253 3.58507C6.52017 3.21914 6.34463 2.88159 6.06938 2.63677C5.79413 2.39194 5.43841 2.25697 5.07003 2.25757H3.77253C2.92503 2.25757 2.22003 2.96257 2.27253 3.81007C2.67003 10.2151 7.79253 15.3301 14.19 15.7276C15.0375 15.7801 15.7425 15.0751 15.7425 14.2276V12.9301C15.75 12.1726 15.18 11.5351 14.4225 11.4451Z" fill="#E3B200"/>
</svg>
