<svg width="56" height="56" viewBox="0 0 56 56" fill="none" xmlns="http://www.w3.org/2000/svg">
<path d="M28 0L34.7008 0.813629L41.0122 3.20723L46.5674 7.0417L51.0435 12.0942L54.1805 18.0711L55.7958 24.625V31.375L54.1805 37.9289L51.0435 43.9058L46.5674 48.9583L41.0122 52.7928L34.7008 55.1864L28 56L21.2992 55.1864L14.9878 52.7928L9.43257 48.9583L4.95645 43.9058L1.81955 37.9289L0.204151 31.375V24.625L1.81955 18.0711L4.95645 12.0942L9.43257 7.0417L14.9878 3.20723L21.2992 0.813629L28 0Z" fill="#1E272E"/>
<path d="M25 18H20.125C19.8266 18 19.5405 18.1196 19.3295 18.3325C19.1185 18.5454 19 18.8341 19 19.1351V37.8649C19 38.1659 19.1185 38.4546 19.3295 38.6675C19.5405 38.8804 19.8266 39 20.125 39H35.875C36.1734 39 36.4595 38.8804 36.6705 38.6675C36.8815 38.4546 37 38.1659 37 37.8649V19.1351C37 18.8341 36.8815 18.5454 36.6705 18.3325C36.4595 18.1196 36.1734 18 35.875 18H33.0906H31" stroke="#F6D935" stroke-width="1.3" stroke-linejoin="round"/>
<path d="M25 17.6C25 17.2686 25.2686 17 25.6 17H30.4C30.7314 17 31 17.2686 31 17.6V18.4C31 18.7314 30.7314 19 30.4 19H25.6C25.2686 19 25 18.7314 25 18.4V17.6Z" stroke="#F6D935" stroke-linecap="round" stroke-linejoin="round"/>
<path d="M22 23H34" stroke="#F6D935" stroke-width="1.3" stroke-linecap="round" stroke-linejoin="round"/>
<path d="M22 28H34" stroke="#F6D935" stroke-width="1.3" stroke-linecap="round" stroke-linejoin="round"/>
<path d="M22 33H34" stroke="#F6D935" stroke-width="1.3" stroke-linecap="round" stroke-linejoin="round"/>
</svg>
