<svg width="56" height="56" viewBox="0 0 56 56" fill="none" xmlns="http://www.w3.org/2000/svg">
<path d="M28 0L34.7008 0.813629L41.0122 3.20723L46.5674 7.0417L51.0435 12.0942L54.1805 18.0711L55.7958 24.625V31.375L54.1805 37.9289L51.0435 43.9058L46.5674 48.9583L41.0122 52.7928L34.7008 55.1864L28 56L21.2992 55.1864L14.9878 52.7928L9.43257 48.9583L4.95645 43.9058L1.81955 37.9289L0.204151 31.375V24.625L1.81955 18.0711L4.95645 12.0942L9.43257 7.0417L14.9878 3.20723L21.2992 0.813629L28 0Z" fill="#1E272E"/>
<path fill-rule="evenodd" clip-rule="evenodd" d="M39 21.4864C39 23.9658 36.9892 25.9765 34.5099 25.9765C32.0305 25.9765 30.0209 23.9658 30.0209 21.4864C30.0209 19.0071 32.0305 16.9963 34.5099 16.9963C36.9892 16.9963 39 19.0071 39 21.4864Z" fill="#F6D935"/>
<path fill-rule="evenodd" clip-rule="evenodd" d="M25.9791 21.4864C25.9791 23.9658 23.9694 25.9765 21.489 25.9765C19.0108 25.9765 17 23.9658 17 21.4864C17 19.0071 19.0108 16.9963 21.489 16.9963C23.9694 16.9963 25.9791 19.0071 25.9791 21.4864Z" fill="#F6D935"/>
<path fill-rule="evenodd" clip-rule="evenodd" d="M39 34.4271C39 36.9065 36.9892 38.9161 34.5099 38.9161C32.0305 38.9161 30.0209 36.9065 30.0209 34.4271C30.0209 31.9478 32.0305 29.937 34.5099 29.937C36.9892 29.937 39 31.9478 39 34.4271Z" fill="#F6D935"/>
<path fill-rule="evenodd" clip-rule="evenodd" d="M25.9791 34.4271C25.9791 36.9065 23.9694 38.9161 21.489 38.9161C19.0108 38.9161 17 36.9065 17 34.4271C17 31.9478 19.0108 29.937 21.489 29.937C23.9694 29.937 25.9791 31.9478 25.9791 34.4271Z" fill="#F6D935"/>
</svg>
