<svg width="177" height="76" viewBox="0 0 177 76" fill="none" xmlns="http://www.w3.org/2000/svg">
<path d="M0 0.504639H21.9396V30.1877C21.9396 42.3046 12.1169 52.1273 0 52.1273V52.1273V0.504639Z" fill="#F6D935"/>
<circle cx="10.3245" cy="63.5579" r="10.3245" fill="#F6D935"/>
<path d="M34.2932 24.1954L23.9678 24.1035V38.7982H28.9027C35.3176 38.7982 40.5178 43.9985 40.5178 50.4133V73.6981C48.9115 71.9878 54.9414 64.6054 54.9414 56.0393V45.028C54.9414 33.5943 45.7265 24.2971 34.2932 24.1954Z" fill="#F6D935"/>
<path d="M68.4208 47.1563C68.2843 46.337 68.1553 45.5405 68.034 44.7668C67.9278 43.993 67.8747 43.3103 67.8747 42.7186C67.8747 41.5352 68.1022 40.5111 68.5574 39.6463C69.0125 38.7967 69.6573 38.1368 70.4918 37.6665C71.3262 37.1961 72.3123 36.961 73.4502 36.961C73.6778 36.961 73.9585 36.961 74.2922 36.961C74.6412 36.961 75.0432 36.961 75.4984 36.961C75.9535 36.961 76.4618 36.961 77.0231 36.961C77.5845 36.961 78.1989 36.961 78.8665 36.961L77.4783 38.2809V33.9797C77.4783 33.1908 77.3873 32.5688 77.2052 32.1136C77.0383 31.6433 76.7273 31.3095 76.2721 31.1123C75.8322 30.9151 75.1874 30.8165 74.3378 30.8165C73.7612 30.8165 73.1695 30.862 72.5627 30.953C71.971 31.0289 71.5007 31.1351 71.1517 31.2716L73.0633 29.4965C72.9571 29.8607 72.8585 30.3158 72.7675 30.862C72.6916 31.4082 72.631 31.9771 72.5854 32.5688C72.5399 33.1453 72.5172 33.6915 72.5172 34.2073C72.5172 34.7687 72.5399 35.3376 72.5854 35.9141C72.631 36.4755 72.6841 36.9761 72.7447 37.4161C72.8206 37.8561 72.8813 38.1595 72.9268 38.3264L70.0366 39.1229C69.9607 38.9105 69.8773 38.5616 69.7863 38.0761C69.7104 37.5906 69.6346 37.0217 69.5587 36.3693C69.498 35.7017 69.4677 34.9962 69.4677 34.2528C69.4677 33.5094 69.498 32.7888 69.5587 32.0909C69.6346 31.3778 69.7256 30.7406 69.8318 30.1793C69.938 29.6027 70.0366 29.14 70.1276 28.7911C70.5221 28.6393 71.1062 28.5028 71.88 28.3814C72.6537 28.2449 73.4881 28.1766 74.3833 28.1766C75.3694 28.1766 76.2115 28.2752 76.9093 28.4725C77.6224 28.6545 78.2065 28.92 78.6617 29.269C79.132 29.6179 79.5037 30.0351 79.7768 30.5206C80.0499 30.9909 80.2395 31.5219 80.3457 32.1136C80.4519 32.7053 80.505 33.335 80.505 34.0025V39.6008C79.8375 39.6008 79.1396 39.6008 78.4113 39.6008C77.6983 39.6008 77.0004 39.6008 76.3177 39.6008C75.6501 39.6008 75.0584 39.6008 74.5426 39.6008C74.0419 39.6008 73.6778 39.6008 73.4502 39.6008C73.2075 39.6008 72.942 39.6312 72.6537 39.6919C72.3654 39.7677 72.0848 39.9043 71.8117 40.1015C71.5538 40.3139 71.3414 40.6249 71.1745 41.0345C71.0076 41.4594 70.9241 42.0207 70.9241 42.7186C70.9241 43.2648 70.9697 43.902 71.0607 44.6302C71.1669 45.3585 71.2883 46.2005 71.4248 47.1563H68.4208ZM93.7962 39.6008V36.961H96.1858V39.6008H93.7962ZM87.6517 45.2447C87.0904 45.2447 86.4987 45.1992 85.8767 45.1081C85.2698 45.0323 84.6174 44.9261 83.9195 44.7895L84.3747 42.3545C85.1332 42.4455 85.778 42.5138 86.309 42.5593C86.8401 42.6048 87.2876 42.6276 87.6517 42.6276C88.7441 42.6276 89.533 42.4303 90.0185 42.0359C90.504 41.6414 90.7467 41.0497 90.7467 40.2608V30.2703L91.4977 30.8165H88.6531C88.031 30.8165 87.5304 30.8923 87.1511 31.044C86.7718 31.1806 86.4911 31.4764 86.309 31.9316C86.1422 32.3716 86.0587 33.0467 86.0587 33.957C86.0587 34.8218 86.1346 35.4742 86.2863 35.9141C86.4532 36.3389 86.7263 36.6196 87.1056 36.7562C87.4848 36.8927 88.0007 36.961 88.6531 36.961H90.7467V39.6008H88.6531C87.3635 39.6008 86.3015 39.396 85.467 38.9864C84.6326 38.5767 84.0105 37.9547 83.6009 37.1203C83.2065 36.2858 83.0092 35.2314 83.0092 33.957C83.0092 32.6826 83.2065 31.6206 83.6009 30.771C84.0105 29.9062 84.6326 29.2614 85.467 28.8366C86.3015 28.3966 87.3635 28.1766 88.6531 28.1766H93.7962V40.2608C93.7962 41.2925 93.5383 42.18 93.0225 42.9234C92.5218 43.682 91.8088 44.2585 90.8833 44.653C89.973 45.0474 88.8958 45.2447 87.6517 45.2447ZM96.1858 39.6008V36.961C96.2768 36.961 96.3451 36.9913 96.3906 37.052C96.4513 37.1127 96.4968 37.2037 96.5271 37.3251C96.5726 37.4465 96.603 37.5906 96.6182 37.7575C96.6333 37.9092 96.6409 38.0837 96.6409 38.2809C96.6409 38.4781 96.6333 38.6602 96.6182 38.8271C96.603 38.994 96.5726 39.1381 96.5271 39.2595C96.4968 39.3657 96.4513 39.4491 96.3906 39.5098C96.3451 39.5705 96.2768 39.6008 96.1858 39.6008ZM96.189 39.6008V36.961H111.983L109.866 38.6678V34.7763C109.866 33.4715 109.692 32.4247 109.343 31.6357C109.009 30.8468 108.47 30.2779 107.727 29.9289C106.999 29.5648 106.051 29.3828 104.882 29.3828C104.321 29.3828 103.706 29.4055 103.039 29.451C102.371 29.4814 101.704 29.5269 101.036 29.5876C100.384 29.6331 99.7922 29.6862 99.2612 29.7469L98.9426 27.6987C99.4584 27.5622 100.058 27.418 100.74 27.2663C101.423 27.1146 102.136 26.9856 102.88 26.8794C103.638 26.7732 104.374 26.7201 105.087 26.7201C106.073 26.7201 107.029 26.8567 107.955 27.1298C108.895 27.3877 109.737 27.8277 110.481 28.4497C111.224 29.0566 111.816 29.8758 112.256 30.9075C112.696 31.9392 112.916 33.2288 112.916 34.7763V39.6008H96.189ZM98.533 36.961V35.8231C98.533 35.0949 98.715 34.4197 99.0792 33.7977C99.4584 33.1605 99.9743 32.6598 100.627 32.2957C101.279 31.9164 102.007 31.7268 102.811 31.7268C103.615 31.7268 104.336 31.9164 104.973 32.2957C105.611 32.6598 106.111 33.1529 106.475 33.7749C106.855 34.397 107.044 35.0797 107.044 35.8231V36.961H104.632V35.8231C104.632 35.4438 104.549 35.11 104.382 34.8218C104.215 34.5183 103.995 34.2756 103.722 34.0935C103.449 33.9115 103.145 33.8204 102.811 33.8204C102.478 33.8204 102.167 33.9115 101.878 34.0935C101.605 34.2756 101.385 34.5183 101.218 34.8218C101.051 35.11 100.968 35.4438 100.968 35.8231V36.961H98.533ZM96.189 39.6008C96.0979 39.6008 96.0297 39.5705 95.9841 39.5098C95.9235 39.4491 95.8779 39.3657 95.8476 39.2595C95.8021 39.1381 95.7717 38.994 95.7566 38.8271C95.7414 38.6602 95.7338 38.4781 95.7338 38.2809C95.7338 38.0078 95.749 37.7802 95.7793 37.5982C95.8097 37.4009 95.8628 37.2492 95.9386 37.143C95.9993 37.0217 96.0828 36.961 96.189 36.961V39.6008ZM127.287 45.2447C126.3 45.2447 125.383 45.1005 124.533 44.8123C123.699 44.5392 122.97 44.1523 122.348 43.6516C121.726 43.1662 121.233 42.5821 120.869 41.8993C120.52 41.2318 120.346 40.5035 120.346 39.7146C120.346 39.4264 120.368 39.0547 120.414 38.5995C120.459 38.1444 120.52 37.6209 120.596 37.0292C120.687 36.4375 120.786 35.8079 120.892 35.1404L123.896 35.55C123.744 36.5058 123.623 37.3554 123.532 38.0988C123.441 38.8422 123.395 39.3657 123.395 39.6691C123.395 40.2456 123.554 40.7539 123.873 41.1938C124.192 41.6338 124.639 41.9752 125.216 42.2179C125.807 42.4758 126.498 42.6048 127.287 42.6048H133.727C134.713 42.6048 135.449 42.3545 135.934 41.8538C136.42 41.3532 136.663 40.6249 136.663 39.6691V38.8043H139.689V39.6691C139.689 40.7615 139.447 41.7249 138.961 42.5593C138.476 43.3937 137.785 44.0461 136.89 44.5164C136.01 45.0019 134.956 45.2447 133.727 45.2447H127.287ZM135.661 39.6008C134.963 39.6008 134.288 39.525 133.636 39.3733C132.999 39.2215 132.392 38.9485 131.815 38.554L133.545 36.3693C133.788 36.5362 134 36.6651 134.182 36.7562C134.379 36.832 134.592 36.8851 134.819 36.9155C135.062 36.9458 135.343 36.961 135.661 36.961H140.691V39.6008H135.661ZM140.691 39.6008V36.961C140.767 36.961 140.835 36.9913 140.896 37.052C140.956 37.1127 141.002 37.2037 141.032 37.3251C141.062 37.4465 141.085 37.5906 141.1 37.7575C141.131 37.9092 141.146 38.0837 141.146 38.2809C141.146 38.4781 141.131 38.6602 141.1 38.8271C141.085 38.994 141.062 39.1381 141.032 39.2595C141.002 39.3657 140.956 39.4491 140.896 39.5098C140.835 39.5705 140.767 39.6008 140.691 39.6008ZM126.513 49.9327V47.3384H129.449V49.9327H126.513ZM130.655 49.9327V47.3384H133.59V49.9327H130.655ZM140.681 39.6008V36.961H144.846L143.071 38.4402V28.1766H146.121V39.6008H140.681ZM140.681 39.6008C140.59 39.6008 140.522 39.5705 140.477 39.5098C140.416 39.4491 140.37 39.3657 140.34 39.2595C140.295 39.1381 140.264 38.994 140.249 38.8271C140.234 38.6602 140.226 38.4781 140.226 38.2809C140.226 38.0078 140.242 37.7802 140.272 37.5982C140.302 37.4009 140.355 37.2492 140.431 37.143C140.492 37.0217 140.575 36.961 140.681 36.961V39.6008ZM143.071 44.4482V41.8538H146.121V44.4482H143.071ZM152.846 39.6008V36.961H155.44V39.6008H152.846ZM149.819 39.6008V23.5113H152.846V39.6008H149.819ZM155.44 39.6008V36.961C155.531 36.961 155.6 36.9913 155.645 37.052C155.706 37.1127 155.751 37.2037 155.782 37.3251C155.827 37.4465 155.857 37.5906 155.873 37.7575C155.888 37.9092 155.895 38.0837 155.895 38.2809C155.895 38.4781 155.888 38.6602 155.873 38.8271C155.857 38.994 155.827 39.1381 155.782 39.2595C155.751 39.3657 155.706 39.4491 155.645 39.5098C155.6 39.5705 155.531 39.6008 155.44 39.6008ZM155.438 39.6008V36.961H171.232L169.115 38.6678V34.7763C169.115 33.4715 168.941 32.4247 168.592 31.6357C168.258 30.8468 167.72 30.2779 166.976 29.9289C166.248 29.5648 165.3 29.3828 164.132 29.3828C163.57 29.3828 162.956 29.4055 162.288 29.451C161.621 29.4814 160.953 29.5269 160.286 29.5876C159.633 29.6331 159.041 29.6862 158.51 29.7469L158.192 27.6987C158.708 27.5622 159.307 27.418 159.99 27.2663C160.672 27.1146 161.386 26.9856 162.129 26.8794C162.887 26.7732 163.623 26.7201 164.336 26.7201C165.323 26.7201 166.278 26.8567 167.204 27.1298C168.144 27.3877 168.986 27.8277 169.73 28.4497C170.473 29.0566 171.065 29.8758 171.505 30.9075C171.945 31.9392 172.165 33.2288 172.165 34.7763V39.6008H155.438ZM157.782 36.961V35.8231C157.782 35.0949 157.964 34.4197 158.328 33.7977C158.708 33.1605 159.224 32.6598 159.876 32.2957C160.528 31.9164 161.257 31.7268 162.061 31.7268C162.865 31.7268 163.585 31.9164 164.223 32.2957C164.86 32.6598 165.36 33.1529 165.725 33.7749C166.104 34.397 166.294 35.0797 166.294 35.8231V36.961H163.881V35.8231C163.881 35.4438 163.798 35.11 163.631 34.8218C163.464 34.5183 163.244 34.2756 162.971 34.0935C162.698 33.9115 162.394 33.8204 162.061 33.8204C161.727 33.8204 161.416 33.9115 161.128 34.0935C160.855 34.2756 160.635 34.5183 160.468 34.8218C160.301 35.11 160.217 35.4438 160.217 35.8231V36.961H157.782ZM155.438 39.6008C155.347 39.6008 155.279 39.5705 155.233 39.5098C155.173 39.4491 155.127 39.3657 155.097 39.2595C155.051 39.1381 155.021 38.994 155.006 38.8271C154.991 38.6602 154.983 38.4781 154.983 38.2809C154.983 38.0078 154.998 37.7802 155.029 37.5982C155.059 37.4009 155.112 37.2492 155.188 37.143C155.249 37.0217 155.332 36.961 155.438 36.961V39.6008Z" fill="#1C3039"/>
<path d="M68.1186 66V53.4862H70.647V58.7079H75.5023V53.4862H78.0307V66H75.5023V60.8333H70.647V66H68.1186ZM79.4047 66L82.5927 53.4862H87.0082L90.1779 66H87.6495L86.9532 63.4716H82.5743L81.9148 66H79.4047ZM82.9774 61.4379H86.5868L85.176 55.5383H84.4065L82.9774 61.4379ZM91.5576 66V53.4862H96.2663C97.3045 53.4862 98.1656 53.6328 98.8496 53.926C99.5337 54.2069 100.047 54.6649 100.389 55.3001C100.743 55.9352 100.92 56.7842 100.92 57.8468C100.92 58.9095 100.743 59.7767 100.389 60.4485C100.047 61.1081 99.5337 61.5967 98.8496 61.9142C98.1656 62.2196 97.3045 62.3723 96.2663 62.3723H94.086V66H91.5576ZM94.086 60.3019H96.193C96.9625 60.3019 97.5122 60.1004 97.842 59.6973C98.1717 59.282 98.3366 58.6713 98.3366 57.8651C98.3366 57.0346 98.1717 56.4422 97.842 56.0879C97.5122 55.7337 96.9625 55.5566 96.193 55.5566H94.086V60.3019ZM102.543 66V53.4862H107.252C108.29 53.4862 109.152 53.6328 109.836 53.926C110.52 54.2069 111.033 54.6649 111.375 55.3001C111.729 55.9352 111.906 56.7842 111.906 57.8468C111.906 58.9095 111.729 59.7767 111.375 60.4485C111.033 61.1081 110.52 61.5967 109.836 61.9142C109.152 62.2196 108.29 62.3723 107.252 62.3723H105.072V66H102.543ZM105.072 60.3019H107.179C107.948 60.3019 108.498 60.1004 108.828 59.6973C109.158 59.282 109.323 58.6713 109.323 57.8651C109.323 57.0346 109.158 56.4422 108.828 56.0879C108.498 55.7337 107.948 55.5566 107.179 55.5566H105.072V60.3019ZM115.65 66V61.2547L111.821 53.4862H114.569L116.914 58.5064L119.296 53.4862H122.026L118.179 61.2547V66H115.65ZM127.163 66V53.4862H129.692V58.7079H134.547V53.4862H137.075V66H134.547V60.8333H129.692V66H127.163ZM144.312 66.2015C142.981 66.2015 141.924 65.9695 141.143 65.5053C140.373 65.0289 139.817 64.3144 139.475 63.3617C139.146 62.4089 138.981 61.218 138.981 59.7889C138.981 58.3476 139.146 57.1445 139.475 56.1795C139.817 55.2146 140.373 54.4878 141.143 53.9993C141.924 53.5107 142.981 53.2664 144.312 53.2664C145.644 53.2664 146.694 53.5107 147.464 53.9993C148.245 54.4878 148.801 55.2146 149.131 56.1795C149.473 57.1445 149.644 58.3476 149.644 59.7889C149.644 61.2425 149.473 62.4456 149.131 63.3983C148.801 64.351 148.245 65.0595 147.464 65.5236C146.694 65.9756 145.644 66.2015 144.312 66.2015ZM144.312 64.0762C145.082 64.0762 145.662 63.9235 146.053 63.6182C146.456 63.3006 146.725 62.8242 146.859 62.1891C146.993 61.5417 147.061 60.7417 147.061 59.7889C147.061 58.8362 146.987 58.0361 146.841 57.3888C146.706 56.7292 146.444 56.2345 146.053 55.9047C145.662 55.5627 145.082 55.3917 144.312 55.3917C143.555 55.3917 142.975 55.5627 142.572 55.9047C142.181 56.2345 141.912 56.7292 141.766 57.3888C141.619 58.0361 141.546 58.8362 141.546 59.7889C141.546 60.7294 141.613 61.5173 141.747 62.1524C141.894 62.7876 142.163 63.2701 142.553 63.5998C142.957 63.9174 143.543 64.0762 144.312 64.0762ZM151.551 66V53.4862H155.618L158.146 61.841L160.62 53.4862H164.742V66H162.214V56.7292H161.957L159.337 65.6702H156.956L154.336 56.7292H154.079V66H151.551ZM167.045 66V53.4862H175.363V55.5932H169.574V58.6347H174.264V60.705H169.574V63.893H175.363V66H167.045Z" fill="#1C3039"/>
</svg>
