<svg width="20" height="24" viewBox="0 0 20 24" fill="none" xmlns="http://www.w3.org/2000/svg">
<path d="M7 2H2.125C1.82663 2 1.54048 2.11959 1.32951 2.33247C1.11853 2.54535 1 2.83408 1 3.13514V21.8649C1 22.1659 1.11853 22.4546 1.32951 22.6675C1.54048 22.8804 1.82663 23 2.125 23H17.875C18.1734 23 18.4595 22.8804 18.6705 22.6675C18.8815 22.4546 19 22.1659 19 21.8649V3.13514C19 2.83408 18.8815 2.54535 18.6705 2.33247C18.4595 2.11959 18.1734 2 17.875 2H15.0906H13" stroke="black" stroke-width="1.3" stroke-linejoin="round"/>
<path d="M7 1.6C7 1.26863 7.26863 1 7.6 1H12.4C12.7314 1 13 1.26863 13 1.6V2.4C13 2.73137 12.7314 3 12.4 3H7.6C7.26863 3 7 2.73137 7 2.4V1.6Z" stroke="black" stroke-linecap="round" stroke-linejoin="round"/>
<path d="M4 7H16" stroke="black" stroke-width="1.3" stroke-linecap="round" stroke-linejoin="round"/>
<path d="M4 12H16" stroke="black" stroke-width="1.3" stroke-linecap="round" stroke-linejoin="round"/>
<path d="M4 17H16" stroke="black" stroke-width="1.3" stroke-linecap="round" stroke-linejoin="round"/>
</svg>
