<svg width="11" height="11" viewBox="0 0 11 11" fill="none" xmlns="http://www.w3.org/2000/svg">
<path d="M2.28718 4.94542C3.00218 6.2425 4.15412 7.30125 5.55929 7.96583L6.65166 6.9575C6.78572 6.83375 6.98433 6.7925 7.15811 6.8475C7.71423 7.01708 8.31502 7.10875 8.93072 7.10875C9.20381 7.10875 9.42725 7.315 9.42725 7.56708V9.16667C9.42725 9.41875 9.20381 9.625 8.93072 9.625C4.26832 9.625 0.489746 6.13708 0.489746 1.83333C0.489746 1.58125 0.713184 1.375 0.986274 1.375H2.72412C2.99721 1.375 3.22065 1.58125 3.22065 1.83333C3.22065 2.40625 3.31995 2.95625 3.50367 3.46958C3.55829 3.63 3.51857 3.80875 3.37954 3.93708L2.28718 4.94542Z" fill="#E3B200"/>
</svg>
