<svg width="16" height="20" viewBox="0 0 16 20" fill="none" xmlns="http://www.w3.org/2000/svg">
<path d="M13.6 11.6667C14.2365 11.6667 14.847 11.9301 15.2971 12.3989C15.7471 12.8677 16 13.5036 16 14.1667V14.7625C16 17.7433 12.632 20 8 20C3.368 20 0 17.8608 0 14.7625V14.1667C0 13.5036 0.252856 12.8677 0.702944 12.3989C1.15303 11.9301 1.76348 11.6667 2.4 11.6667H13.6ZM13.6 12.9167H2.4C2.10182 12.9167 1.81432 13.0323 1.59351 13.241C1.37271 13.4498 1.23442 13.7367 1.2056 14.0458L1.2 14.1667V14.7625C1.2 16.9908 3.9112 18.75 8 18.75C11.9408 18.75 14.684 16.9958 14.7968 14.8967L14.8 14.7625V14.1667C14.8 13.8561 14.689 13.5566 14.4886 13.3266C14.2882 13.0966 14.0128 12.9525 13.716 12.9225L13.6 12.9167ZM8 0C8.63035 -9.78424e-09 9.25452 0.129329 9.83688 0.380602C10.4192 0.631876 10.9484 1.00017 11.3941 1.46447C11.8398 1.92876 12.1934 2.47995 12.4346 3.08658C12.6758 3.69321 12.8 4.34339 12.8 5C12.8 5.65661 12.6758 6.30679 12.4346 6.91342C12.1934 7.52004 11.8398 8.07124 11.3941 8.53553C10.9484 8.99983 10.4192 9.36812 9.83688 9.6194C9.25452 9.87067 8.63035 10 8 10C6.72696 10 5.50606 9.47322 4.60589 8.53553C3.70571 7.59785 3.2 6.32608 3.2 5C3.2 3.67392 3.70571 2.40215 4.60589 1.46447C5.50606 0.526784 6.72696 1.97602e-08 8 0ZM8 1.25C7.04522 1.25 6.12955 1.64509 5.45442 2.34835C4.77928 3.05161 4.4 4.00544 4.4 5C4.4 5.99456 4.77928 6.94839 5.45442 7.65165C6.12955 8.35491 7.04522 8.75 8 8.75C8.95478 8.75 9.87045 8.35491 10.5456 7.65165C11.2207 6.94839 11.6 5.99456 11.6 5C11.6 4.00544 11.2207 3.05161 10.5456 2.34835C9.87045 1.64509 8.95478 1.25 8 1.25Z" fill="black"/>
</svg>
