<svg width="37" height="11" viewBox="0 0 37 11" fill="none" xmlns="http://www.w3.org/2000/svg">
<path d="M3.60366 10.996C4.58116 11.0317 5.5346 10.6868 6.26516 10.0333C6.5021 9.79919 6.68935 9.51926 6.81561 9.21037C6.94187 8.90152 7.00449 8.57017 6.99973 8.2363C7.00266 7.92497 6.94395 7.61619 6.82696 7.32788C6.71 7.03957 6.53712 6.77749 6.3184 6.55696C5.80072 6.06714 5.14744 5.7464 4.44472 5.63704L3.12993 5.38035C2.59762 5.27336 2.27825 5.0006 2.27825 4.62625C2.27825 4.12883 2.75731 3.78655 3.52381 3.78655C3.95164 3.76988 4.36871 3.92363 4.68424 4.21442C4.86138 4.40841 4.97315 4.65357 5.00363 4.91505L6.8986 4.48718C6.83816 3.94471 6.58938 3.44099 6.19598 3.06455C5.47318 2.39357 4.51816 2.03278 3.53449 2.05908C2.61775 2.03011 1.72341 2.34681 1.02734 2.94689C0.773522 3.18261 0.571421 3.46893 0.43394 3.78755C0.296459 4.10619 0.226623 4.4501 0.228889 4.79738C0.219418 5.0875 0.268805 5.37648 0.374042 5.64683C0.47928 5.91715 0.638169 6.16312 0.841035 6.36978C1.34 6.83419 1.9572 7.15074 2.62424 7.28431L3.91774 7.59451C4.56714 7.74428 4.85458 7.98493 4.85458 8.4128C4.85458 8.94761 4.38084 9.25245 3.59834 9.25245C3.35699 9.26427 3.11579 9.22623 2.88965 9.14068C2.66351 9.05513 2.45723 8.92391 2.28357 8.75508C2.07607 8.54512 1.9545 8.26455 1.94289 7.9689L0 8.39676C0.0594597 8.971 0.319756 9.50542 0.734573 9.90497C1.11662 10.2664 1.56686 10.5473 2.05872 10.731C2.55058 10.9147 3.07409 10.9975 3.59834 10.9746L3.60366 10.996ZM17.9704 10.9746C18.5026 10.9895 19.0325 10.8983 19.5295 10.7065C20.0265 10.5147 20.4808 10.2259 20.8662 9.85682C21.3591 9.38598 21.7144 8.78857 21.8935 8.12935L19.8974 7.4608C19.8042 7.80166 19.6201 8.11048 19.3651 8.35397C18.99 8.70888 18.4908 8.90102 17.9758 8.88878C17.695 8.89183 17.4165 8.83907 17.1561 8.7335C16.8958 8.62794 16.6587 8.4717 16.4587 8.27374C16.0394 7.79098 15.8203 7.16504 15.8466 6.52488C15.8177 5.87659 16.0432 5.24285 16.4747 4.75995C16.8773 4.36995 17.4165 4.15477 17.9758 4.16094C18.2247 4.1531 18.4725 4.1965 18.7042 4.28847C18.9358 4.38045 19.1462 4.51905 19.3225 4.69576C19.5714 4.95039 19.7542 5.26265 19.8548 5.60496L21.8829 4.92041C21.7133 4.28329 21.3854 3.69994 20.93 3.22499C20.5322 2.84547 20.0635 2.54891 19.5509 2.35246C19.0384 2.15601 18.4921 2.06357 17.9438 2.08047C17.3737 2.07367 16.8079 2.18027 16.2789 2.39414C15.7499 2.60801 15.2683 2.92492 14.8618 3.32661C14.052 4.19895 13.6043 5.34905 13.6103 6.54191C13.6162 7.73481 14.0753 8.88037 14.8937 9.74451C15.7185 10.5508 16.825 11.0001 17.9758 10.996L17.9704 10.9746ZM11.0931 10.996C11.7319 11.0221 12.3611 10.834 12.8817 10.4612V8.63209C12.5467 8.86263 12.1485 8.98232 11.7425 8.97437C11.5895 9.00268 11.4319 8.99296 11.2836 8.94602C11.1352 8.89904 11.0005 8.81629 10.8912 8.70497C10.782 8.59363 10.7016 8.45715 10.657 8.30738C10.6124 8.15763 10.605 7.9992 10.6354 7.84587V0H8.39438V2.31579H12.8923V4.50322H8.39438V8.3914C8.36373 9.0772 8.60271 9.74763 9.05975 10.258C9.33436 10.5116 9.65661 10.7075 10.0076 10.8342C10.3586 10.961 10.7313 11.016 11.1038 10.996" fill="#4F008C"/>
<path d="M24.083 8.11896V2.31747H25.0526V2.77631C25.2063 2.58756 25.4011 2.43741 25.6218 2.33767C25.8424 2.23792 26.083 2.19129 26.3245 2.20144C27.44 2.20144 28.2428 3.10331 28.2428 4.39546C28.2428 5.68761 27.4661 6.61587 26.3245 6.61587C26.0821 6.62474 25.8411 6.57648 25.6203 6.47489C25.3996 6.37326 25.2052 6.22111 25.0526 6.03042V8.14008L24.083 8.11896ZM25.0526 3.89968V4.95451C25.1437 5.17536 25.2971 5.36417 25.4937 5.49738C25.6902 5.63055 25.9211 5.70223 26.1577 5.70343C26.8041 5.70343 27.2315 5.21294 27.2315 4.42183C27.2315 3.63072 26.8041 3.15077 26.1577 3.15077C25.9208 3.1473 25.6884 3.21649 25.4912 3.34924C25.2939 3.48198 25.141 3.67205 25.0526 3.89443" fill="#03BB86"/>
<path d="M28.9007 5.10929C28.8857 4.79302 29.0044 4.48396 29.2311 4.24927C29.4577 4.01458 29.774 3.87321 30.1112 3.85586L31.8499 3.64952V3.4432C31.8577 3.39407 31.8535 3.34391 31.8375 3.29656C31.8214 3.24922 31.794 3.20595 31.7573 3.17009C31.7207 3.13422 31.6757 3.10671 31.626 3.08968C31.5762 3.07264 31.5229 3.06653 31.4702 3.07181H29.2693V2.20007H31.4702C32.3506 2.20007 32.8403 2.60241 32.8403 3.32456V6.2699H31.8499V5.75407C31.6831 5.95987 31.4649 6.12402 31.2144 6.232C30.9639 6.33994 30.689 6.38838 30.4138 6.37305C30.2227 6.39185 30.0295 6.37276 29.8468 6.31702C29.6641 6.26127 29.4959 6.17015 29.3532 6.0495C29.2105 5.92886 29.0965 5.78142 29.0185 5.61678C28.9406 5.45213 28.9004 5.27397 28.9007 5.09382V5.10929ZM30.6669 5.60965C30.913 5.61458 31.1554 5.55302 31.3652 5.4323C31.575 5.31155 31.7432 5.13675 31.8499 4.92875V4.41295L30.5238 4.58832C30.1552 4.63473 29.9736 4.81527 29.9736 5.10414C29.9736 5.39298 30.2322 5.61994 30.6889 5.61994" fill="#03BB86"/>
<path d="M33.6641 7.21955H34.3132C34.4137 7.23087 34.5144 7.19865 34.5949 7.12935C34.6754 7.06009 34.7299 6.95885 34.7475 6.84594L34.8668 6.47233L33.4971 2.20007H34.4229L35.2723 5.17277L36.0884 2.20007H37L35.4968 7.10586C35.2917 7.78268 35.0195 8.14007 34.3609 8.14007H33.6641V7.21955Z" fill="#03BB86"/>
</svg>
