<svg width="21" height="25" viewBox="0 0 21 25" fill="none" xmlns="http://www.w3.org/2000/svg">
<path d="M13.5 20H6.5C6.5 20.9283 6.86875 21.8185 7.52513 22.4749C8.1815 23.1313 9.07174 23.5 10 23.5C10.9283 23.5 11.8185 23.1313 12.4749 22.4749C13.1313 21.8185 13.5 20.9283 13.5 20Z" stroke="#1E272E" stroke-width="1.21875" stroke-linecap="round" stroke-linejoin="round"/>
<path d="M17 9.49989V14.1664L18.61 15.7764C18.9564 16.1223 19.1923 16.5632 19.2879 17.0433C19.3835 17.5234 19.3345 18.021 19.1471 18.4732C18.9597 18.9254 18.6424 19.3119 18.2353 19.5836C17.8281 19.8554 17.3495 20.0003 16.8601 19.9999H3.14005C2.65044 20.0005 2.17165 19.8558 1.76435 19.5841C1.35706 19.3124 1.03959 18.9259 0.85217 18.4736C0.664751 18.0212 0.615819 17.5235 0.711574 17.0433C0.807329 16.5631 1.04346 16.1222 1.39005 15.7764L3.00005 14.1664V9.49989C3.00005 7.64338 3.73755 5.8629 5.0503 4.55015C6.36306 3.23739 8.14353 2.49989 10.0001 2.49989C11.1737 2.49746 12.3291 2.79017 13.3601 3.35109" fill="white"/>
<path d="M17.0001 9.49989V14.1664L18.61 15.7764C18.9564 16.1223 19.1923 16.5632 19.2879 17.0433C19.3835 17.5234 19.3345 18.021 19.1471 18.4732C18.9597 18.9254 18.6424 19.3119 18.2353 19.5836C17.8281 19.8554 17.3495 20.0003 16.8601 19.9999H3.14005C2.65044 20.0005 2.17165 19.8558 1.76435 19.5841C1.35706 19.3124 1.03959 18.9259 0.85217 18.4736C0.664751 18.0212 0.615819 17.5235 0.711574 17.0433C0.807329 16.5631 1.04346 16.1222 1.39005 15.7764L3.00005 14.1664V9.49989C3.00005 7.64338 3.73755 5.8629 5.0503 4.55015C6.36306 3.23739 8.14353 2.49989 10.0001 2.49989C11.1737 2.49746 12.3291 2.79017 13.3601 3.35109" stroke="#1E272E" stroke-width="1.21875" stroke-linecap="round" stroke-linejoin="round"/>
<path d="M12.5454 5.04541C12.5454 5.97367 12.9142 6.86391 13.5705 7.52028C14.2269 8.17666 15.1172 8.54541 16.0454 8.54541C16.9737 8.54541 17.8639 8.17666 18.5203 7.52028C19.1767 6.86391 19.5454 5.97367 19.5454 5.04541C19.5454 4.11715 19.1767 3.22691 18.5203 2.57054C17.8639 1.91416 16.9737 1.54541 16.0454 1.54541C15.1172 1.54541 14.2269 1.91416 13.5705 2.57054C12.9142 3.22691 12.5454 4.11715 12.5454 5.04541Z" fill="#F92323" stroke="#F92323" stroke-width="1.625" stroke-linecap="round" stroke-linejoin="round"/>
</svg>
