<svg width="26" height="27" viewBox="0 0 26 27" fill="none" xmlns="http://www.w3.org/2000/svg">
<path d="M12.9998 22.5C14.7139 22.5 16.3895 21.9722 17.8148 20.9832C19.24 19.9943 20.3508 18.5887 21.0068 16.9442C21.6627 15.2996 21.8344 13.49 21.5 11.7442C21.1656 9.99836 20.3401 8.39471 19.1281 7.13604C17.916 5.87737 16.3718 5.0202 14.6906 4.67293C13.0094 4.32567 11.2669 4.5039 9.68324 5.18509C8.09962 5.86627 6.74607 7.01982 5.79376 8.49987C4.84146 9.97991 4.33316 11.72 4.33316 13.5C4.33316 15.8869 5.24626 18.1761 6.87157 19.864C8.49689 21.5518 10.7013 22.5 12.9998 22.5ZM12.9998 6C14.4283 6 15.8246 6.43987 17.0123 7.26398C18.2 8.08809 19.1257 9.25943 19.6723 10.6299C20.2189 12.0003 20.362 13.5083 20.0833 14.9632C19.8046 16.418 19.1168 17.7544 18.1067 18.8033C17.0967 19.8522 15.8098 20.5665 14.4088 20.8559C13.0078 21.1453 11.5557 20.9968 10.236 20.4291C8.91632 19.8614 7.78836 18.9001 6.99477 17.6668C6.20119 16.4334 5.77761 14.9834 5.77761 13.5C5.77761 12.5151 5.96442 11.5398 6.32737 10.6299C6.69032 9.71993 7.2223 8.89314 7.89295 8.1967C8.5636 7.50026 9.35977 6.94781 10.236 6.5709C11.1122 6.19399 12.0514 6 12.9998 6Z" fill="#8B8B8B"/>
<path d="M13.0001 11.9475C13.2491 11.9475 13.4879 12.0502 13.664 12.233C13.84 12.4159 13.939 12.6639 13.939 12.9225L13.939 17.4225C13.939 17.681 13.84 17.929 13.664 18.1119C13.4879 18.2947 13.2491 18.3975 13.0001 18.3975C12.7511 18.3975 12.5123 18.2947 12.3362 18.1119C12.1601 17.929 12.0612 17.681 12.0612 17.4225L12.0612 12.9225C12.0612 12.6639 12.1601 12.4159 12.3362 12.233C12.5123 12.0502 12.7511 11.9475 13.0001 11.9475Z" fill="#8B8B8B"/>
<path d="M13.0363 8.60999C12.438 8.60999 11.953 9.11366 11.953 9.73499C11.953 10.3563 12.438 10.86 13.0363 10.86C13.6346 10.86 14.1196 10.3563 14.1196 9.73499C14.1196 9.11367 13.6346 8.60999 13.0363 8.60999Z" fill="#8B8B8B"/>
</svg>
