<svg width="94" height="106" viewBox="0 0 94 106" fill="none" xmlns="http://www.w3.org/2000/svg">
<path fill-rule="evenodd" clip-rule="evenodd" d="M50.2704 16.8667C27.5724 16.8667 6.49118 35.2624 3.17426 57.9605C-0.142665 80.6585 15.5746 99.0543 38.2657 99.0543C60.9637 99.0543 82.0518 80.6585 85.3618 57.9605C88.6787 35.2694 72.9685 16.8667 50.2704 16.8667Z" fill="#F0CA0C"/>
<path fill-rule="evenodd" clip-rule="evenodd" d="M48.3689 10.7949C54.5795 25.1798 57.9311 36.227 56.8139 44.0474C55.6967 51.8609 56.6265 55.2195 51.8246 51.736C47.0158 48.2456 44.8577 51.5625 43.3796 40.8138C41.9016 30.0719 41.2701 24.472 41.2077 19.226C41.1452 13.98 48.3689 10.7949 48.3689 10.7949Z" fill="#506422"/>
<path fill-rule="evenodd" clip-rule="evenodd" d="M54.0451 10.6977C52.5323 3.82797 50.3673 2.05154 48.6394 2.54422C46.9046 3.02996 47.2308 2.81484 46.1483 1.99602C45.0588 1.1772 42.9354 1.71153 42.2832 4.93824C41.6309 8.15802 43.4351 13.293 44.1776 14.2714C44.92 15.2498 44.3372 16.721 46.4467 17.0957C48.5562 17.4704 54.0451 10.6977 54.0451 10.6977Z" fill="#506422"/>
<path fill-rule="evenodd" clip-rule="evenodd" d="M53.1289 8.40789C55.7797 9.8096 56.9038 12.155 56.9038 12.155C56.9038 12.155 59.964 12.9669 60.88 17.0471C61.7959 21.1274 61.3934 23.001 62.1776 24.597C62.9548 26.186 63.4197 27.8653 62.8437 29.5238C62.2678 31.1822 62.1151 32.806 62.1151 32.806C62.1151 32.806 64.301 37.0111 62.9756 40.7028C61.6502 44.3944 60.0334 46.1223 58.4859 45.5047C56.9385 44.8871 52.9277 41.9518 52.657 38.2533C52.3864 34.5547 54.378 32.9101 51.6856 30.8006C48.9932 28.6911 47.3139 27.4698 48.3547 24.6039C49.3956 21.745 50.5961 20.3224 48.5976 17.4913C46.6061 14.6531 48.5976 14.1049 49.7218 12.2452C50.8528 10.3786 48.5976 5.31996 53.1289 8.40789Z" fill="#637D2A"/>
<path fill-rule="evenodd" clip-rule="evenodd" d="M47.6886 42.6041C50.1867 40.5501 52.8375 35.1723 50.6655 32.5284C48.4936 29.8846 46.7241 28.1568 47.9107 23.5769C49.0973 18.997 46.2522 19.6146 46.1412 16.27C46.0302 12.9253 47.1613 12.2522 44.8089 9.80264C42.4565 7.35311 45.5583 5.56974 43.4974 4.07782C41.4364 2.5859 39.7641 3.83496 39.1673 7.12413C38.5706 10.4202 35.3716 8.22052 34.9483 13.3277C34.525 18.4419 37.2937 17.7896 34.9969 22.5915C32.7 27.3935 38.4526 28.0249 37.6685 31.321C36.8843 34.6241 37.2452 38.628 39.9168 41.7784C42.5883 44.9357 48.0842 47.9126 47.6886 42.6041Z" fill="#637D2A"/>
<path fill-rule="evenodd" clip-rule="evenodd" d="M54.5306 16.9153C55.176 20.6902 57.6116 24.5553 60.4359 32.1606C63.2601 39.7729 64.8839 44.9981 61.8029 51.9164C58.7219 58.8279 53.7187 58.3629 47.2584 54.3035C40.798 50.2372 41.2213 44.1238 40.4649 37.0042C39.7085 29.8846 38.175 22.0433 38.8412 17.408C39.5073 12.7726 40.1665 11.3362 40.1665 11.3362C40.1665 11.3362 41.5821 21.4118 44.0108 32.6811C46.4326 43.9503 50.5961 48.2387 51.9284 49.1269C53.2608 50.0151 56.5707 44.3944 54.8568 32.1676C53.1428 19.9407 52.9832 16.2977 54.5306 16.9153Z" fill="#C0C8A1"/>
<path fill-rule="evenodd" clip-rule="evenodd" d="M53.7119 57.9952C51.3526 57.7384 52.0188 54.7823 56.1476 55.0183C59.2286 55.1987 59.0204 58.5781 53.7119 57.9952Z" fill="#8E9F6A"/>
<path fill-rule="evenodd" clip-rule="evenodd" d="M54.2532 21.0996C54.2809 21.4604 54.3295 21.8421 54.385 22.2376C54.5168 22.2792 54.6279 22.3903 54.6556 22.529C56.4945 30.1066 63.059 44.1376 55.7451 51.4654C60.4151 42.3959 58.9926 37.3303 55.5924 28.0526C56.2586 31.0157 56.9109 34.2562 56.9178 37.4275C56.9247 44.3527 55.7312 51.2711 53.1151 51.3336C50.506 51.396 46.176 47.5448 44.0318 38.1075C43.4836 35.6996 42.9978 33.0558 42.5607 30.4605C42.8313 36.4005 43.8652 43.8184 46.1135 47.1701C47.307 48.9534 49.0418 51.1948 50.7072 52.5132C49.1112 51.736 46.9046 48.8702 45.8429 47.3643C42.1374 42.1183 40.6593 15.4442 39.8266 16.5267C39.1813 17.3663 40.4303 45.9626 43.6987 49.4877C45.7249 51.6736 49.6109 56.2326 52.6433 54.9003C53.136 54.6852 53.816 54.4701 54.6973 54.3729C55.3426 54.2966 55.9047 54.2827 56.3696 54.3035C58.5416 54.3868 57.8199 55.2195 59.173 53.1031C60.3735 51.2295 62.1499 47.7529 61.914 43.7907C61.574 38.1075 59.3951 31.9386 55.301 21.3286C54.9748 20.4751 54.0866 19.0942 54.2532 21.0996Z" fill="#ECEFE9"/>
<path fill-rule="evenodd" clip-rule="evenodd" d="M52.9485 30.7658C51.4912 28.6701 48.7017 28.0456 49.4095 25.7904C50.1173 23.5351 52.0949 21.2591 50.6863 18.5806C49.2776 15.9021 47.8343 16.0617 49.7217 14.4587C51.6092 12.8558 51.8382 12.2451 52.0533 10.6977C52.2684 9.15024 54.1559 10.1772 55.391 12.2868C56.6193 14.3893 59.159 14.1256 59.6795 16.9429C60.1999 19.7602 58.8468 20.7872 59.5684 22.2167C60.2832 23.6462 62.7188 26.2414 62.4759 27.6154C62.2331 28.9824 61.6224 30.0788 61.6224 30.0788C61.6224 30.0788 61.6571 28.4481 60.0125 26.0471C58.368 23.6462 57.9377 22.1889 57.7989 18.5528C57.6532 14.9167 55.0788 13.2374 53.4481 14.7432C51.8243 16.249 53.1358 18.1712 52.3794 20.7872C51.6161 23.4033 49.9646 24.125 51.3316 25.5822C52.6987 27.0325 53.8852 29.2253 53.5383 30.2176C53.1844 31.2029 52.9485 30.7658 52.9485 30.7658Z" fill="#69822C"/>
<path fill-rule="evenodd" clip-rule="evenodd" d="M47.6399 39.641C49.2706 37.7743 50.1658 35.6579 49.798 33.8745C49.5204 32.5491 47.973 31.2168 47.1195 29.7943C46.2035 28.2677 45.5859 27.3517 45.9468 25.5198C46.3562 23.4727 47.5358 21.7865 46.5921 19.8296C45.5929 17.7548 44.1426 16.7764 44.9961 15.1318C46.1272 12.946 45.0447 11.5443 43.8997 10.3299C42.4494 8.79635 42.498 9.46252 42.5327 7.25586C42.0261 9.4417 41.6445 9.88581 43.0184 11.5096C43.9413 12.599 44.3299 13.8203 43.4556 14.8473C41.8318 16.7625 44.1634 17.5536 45.1557 19.788C45.9329 21.5367 45.2182 24.5344 44.9128 26.3525C44.441 29.142 45.7802 29.5445 47.6954 31.9524C49.9854 34.846 48.8057 36.3934 47.6399 39.641Z" fill="#69822C"/>
<path fill-rule="evenodd" clip-rule="evenodd" d="M54.2252 57.8842C52.4765 57.6969 52.9692 55.4971 56.0363 55.6706C58.3193 55.8025 58.1667 58.3075 54.2252 57.8842Z" fill="#AEB994"/>
<path fill-rule="evenodd" clip-rule="evenodd" d="M65.0023 30.5786C69.8181 18.6085 71.532 6.31228 71.5737 1.98224C71.6153 -2.35475 67.4865 1.19116 67.4032 5.29221C67.32 9.39327 63.2744 8.83814 64.4888 13.8899C65.7031 18.9416 64.4888 18.4558 63.5312 22.0573C62.5736 25.6587 65.0023 30.5786 65.0023 30.5786Z" fill="#637D2A"/>
<path fill-rule="evenodd" clip-rule="evenodd" d="M65.1548 30.4051C69.464 15.0626 72.8503 6.77026 76.7918 2.93289C80.7332 -0.904469 78.5405 5.61142 77.2151 8.49118C75.8897 11.3709 77.5343 10.3509 77.2706 13.1474C77.0069 15.9438 72.8226 17.7758 72.3923 19.011C71.9621 20.2392 74.4186 19.5869 72.1772 22.7234C69.9359 25.8669 65.1548 30.4051 65.1548 30.4051Z" fill="#576E26"/>
<path fill-rule="evenodd" clip-rule="evenodd" d="M65.5918 30.1621C69.3112 24.4234 76.9929 14.3131 82.8842 10.3161C88.7825 6.31914 82.6483 13.2791 81.6629 14.3894C80.6775 15.4927 82.4401 18.2823 80.858 19.6354C79.2689 20.9885 78.4848 20.142 77.541 22.7511C76.5973 25.3602 65.5918 30.1621 65.5918 30.1621Z" fill="#637D2A"/>
<path fill-rule="evenodd" clip-rule="evenodd" d="M67.7916 15.9439C69.457 11.0518 70.4007 5.35472 70.1578 0.0878906C68.9712 0.559754 67.4515 2.82192 67.403 5.29227C67.3197 9.39332 63.2742 8.8382 64.4885 13.8899C65.7029 18.9416 64.4885 18.4559 63.5309 22.0573C63.3644 22.6957 63.295 23.3758 63.3089 24.0558C64.8632 23.466 66.4801 19.809 67.7916 15.9439Z" fill="#7B913F"/>
<path fill-rule="evenodd" clip-rule="evenodd" d="M76.7916 2.93297C74.1686 5.48659 71.7954 10.004 69.2279 17.2624C68.409 19.58 67.5694 22.1822 66.6951 25.0897C66.8269 24.9995 66.9796 24.8538 67.1461 24.6665C68.1662 23.5284 69.7622 20.843 70.9835 19.1359C72.8987 16.4574 75.7438 13.9524 75.7299 12.7658C75.716 11.5792 75.0637 8.89373 76.5001 6.06254C77.2773 4.52899 77.9851 2.89828 78.0267 1.94067C77.7006 2.11415 77.2981 2.43335 76.7916 2.93297Z" fill="#7B913F"/>
<path fill-rule="evenodd" clip-rule="evenodd" d="M69.4153 26.0472C70.0467 26.0611 71.2264 25.159 73.1416 23.8545C76.2434 21.738 75.5842 20.8845 76.7708 19.2052C77.9574 17.526 79.8032 18.1713 80.3098 16.6308C80.7816 15.1944 81.7045 13.1473 85.0909 10.0594C85.757 8.9422 85.5489 8.50503 82.8842 10.3162C79.7893 12.4118 76.2087 16.1936 72.9612 20.142C71.504 21.9115 70.1161 23.7157 68.874 25.4227C68.9573 25.853 69.1308 26.0472 69.4153 26.0472Z" fill="#7B913F"/>
<path fill-rule="evenodd" clip-rule="evenodd" d="M57.6672 29.0171C51.6857 33.4859 42.5884 57.093 44.4204 64.74C43.4003 68.1818 42.8591 68.7092 42.0402 68.2443C40.9022 67.6058 40.6871 65.4269 39.5491 67.0507C38.411 68.6675 37.7935 70.895 37.7935 70.895C37.7935 70.895 39.2368 67.7099 40.3748 68.7092C41.5198 69.7084 41.7072 72.3245 47.9455 67.023C47.9802 66.9952 48.0149 66.9675 48.0496 66.9328C49.7982 66.4054 52.2061 64.74 55.4259 61.5896C62.4969 54.6574 71.6844 39.1552 70.6435 34.3395C69.332 28.3301 62.8439 25.152 57.6672 29.0171Z" fill="#D8D6A6"/>
<path fill-rule="evenodd" clip-rule="evenodd" d="M63.3506 45.7474C65.6961 40.8692 70.6645 32.2507 68.1664 29.7457C67.9374 29.5167 67.6946 29.3016 67.4448 29.1003C67.3268 29.0032 67.2019 28.913 67.077 28.8228C66.8202 28.6423 66.5635 28.4758 66.2929 28.3231C66.1749 28.2607 66.0639 28.1983 65.939 28.1427C65.1965 27.775 64.3985 27.5251 63.5796 27.4141C61.6505 27.1435 59.5688 27.6154 57.6675 29.031C51.9635 33.2916 43.4283 54.9487 44.2332 63.5811C44.948 63.817 42.436 67.356 47.2171 65.3783C51.9982 63.3937 61.0121 50.6257 63.3506 45.7474Z" fill="#F6F2D1"/>
<path fill-rule="evenodd" clip-rule="evenodd" d="M60.9357 30.8144C55.2595 30.405 44.9409 55.0945 48.7991 54.817C52.3034 54.5672 68.1455 31.3417 60.9357 30.8144Z" fill="#FBFAED"/>
<path fill-rule="evenodd" clip-rule="evenodd" d="M44.5799 35.429V83.1844V83.8783H44.4689C43.9554 85.4535 41.7487 86.6331 39.0979 86.6331C38.0987 86.6331 37.1619 86.4666 36.357 86.1751C35.552 86.4666 34.6152 86.6331 33.616 86.6331C32.6168 86.6331 31.68 86.4666 30.875 86.1751C30.0701 86.4666 29.1333 86.6331 28.134 86.6331C25.4833 86.6331 23.2697 85.4535 22.7631 83.8783H22.6521V83.1844C22.6521 67.2659 22.6521 51.3475 22.6521 35.429C22.6521 24.4582 28.1202 25.4019 30.8542 20.3849V17.7202H33.6229H36.3917C36.3917 18.6084 36.3917 19.4966 36.3917 20.3849C39.1118 25.4019 44.5799 24.93 44.5799 35.429Z" fill="#55352A"/>
<path d="M44.5729 35.783H22.6382V48.9466H44.5729V35.783Z" fill="#C10016"/>
<path d="M36.3499 14.7434H30.8679V17.7203H36.3499V14.7434Z" fill="#C10016"/>
<path fill-rule="evenodd" clip-rule="evenodd" d="M26.1217 83.1846C26.1217 83.594 25.7886 83.9271 25.3792 83.9271C24.9698 83.9271 24.6367 83.594 24.6367 83.1846V35.4292C24.6367 27.7753 27.2042 25.638 29.7648 23.5077C30.2783 23.0775 30.7987 22.6472 31.2914 22.1615C31.5828 21.877 32.0478 21.877 32.3323 22.1684C32.6168 22.4599 32.6168 22.9248 32.3253 23.2093C31.8049 23.7228 31.2567 24.1808 30.7085 24.6319C28.4116 26.5401 26.1217 28.4484 26.1217 35.4153V83.1846Z" fill="white"/>
<path fill-rule="evenodd" clip-rule="evenodd" d="M41.8391 35.7829H44.58V35.429C44.58 24.93 39.112 25.4019 36.3779 20.3849C36.3779 19.4966 36.3779 18.6084 36.3779 17.7202H36.3502H33.637C33.637 18.6084 33.637 19.4966 33.637 20.3849C36.371 25.4019 41.8391 24.93 41.8391 35.429V35.7829Z" fill="#452C22"/>
<path d="M44.5798 35.783H41.8389V48.9466H44.5798V35.783Z" fill="#911B19"/>
<path fill-rule="evenodd" clip-rule="evenodd" d="M44.58 48.9465H41.839V83.1844V83.8783H41.728C41.3047 85.169 39.7434 86.196 37.7241 86.5221C38.1613 86.5915 38.6193 86.6332 39.0981 86.6332C41.7488 86.6332 43.9624 85.4535 44.469 83.8783H44.58V83.1844V48.9465Z" fill="#452C22"/>
<path fill-rule="evenodd" clip-rule="evenodd" d="M22.4577 23.126C25.1085 28.3095 23.3043 31.217 21.0837 31.3905C20.147 31.4599 18.7522 30.6203 18.197 29.9402C16.2055 27.4838 16.49 11.4612 22.4577 23.126Z" fill="#506422"/>
<path fill-rule="evenodd" clip-rule="evenodd" d="M16.6706 22.1821C17.3922 25.4504 19.2173 24.7843 19.1548 23.6255C19.0923 22.3903 15.5325 17.0124 16.6706 22.1821Z" fill="#637D2A"/>
<path fill-rule="evenodd" clip-rule="evenodd" d="M21.8336 21.4673C21.5491 24.7981 19.6477 24.3818 19.5645 23.2299C19.4673 21.9947 22.2846 16.2005 21.8336 21.4673Z" fill="#637D2A"/>
<path fill-rule="evenodd" clip-rule="evenodd" d="M19.918 20.024C21.0421 23.1744 19.1408 23.5838 18.5857 22.5707C17.9889 21.4812 18.1346 15.0417 19.918 20.024Z" fill="#637D2A"/>
<path fill-rule="evenodd" clip-rule="evenodd" d="M19.6477 25.8529C21.209 35.8245 23.2769 41.7089 29.543 52.6173C35.809 63.5256 38.1059 61.7423 38.439 59.6397C38.7721 57.5371 31.8121 54.2757 25.6015 39.4536C19.384 24.6316 21.5421 23.6948 19.6477 25.8529Z" fill="#506422"/>
<path fill-rule="evenodd" clip-rule="evenodd" d="M38.1545 58.6266C36.7875 56.3575 30.917 52.1385 25.6016 39.4537C19.8698 25.7766 21.2576 23.9238 20.0225 25.4157C21.556 34.4297 23.7349 40.2517 29.654 50.5633C34.7682 59.4663 37.2385 59.9104 38.1545 58.6266Z" fill="#637D2A"/>
<path fill-rule="evenodd" clip-rule="evenodd" d="M17.5588 29.607C18.3082 31.654 20.7161 31.8899 20.4385 30.6825C20.1401 29.3988 15.595 24.2915 17.5588 29.607Z" fill="#637D2A"/>
<path fill-rule="evenodd" clip-rule="evenodd" d="M24.0263 27.6502C23.9916 32.2717 21.9653 31.321 21.778 30.0997C21.5698 28.7882 24.061 23.0218 24.0263 27.6502Z" fill="#637D2A"/>
<path fill-rule="evenodd" clip-rule="evenodd" d="M17.2675 25.7211C18.6137 29.038 20.4248 28.0041 20.1472 26.7967C19.8558 25.506 15.1302 20.4681 17.2675 25.7211Z" fill="#637D2A"/>
<path fill-rule="evenodd" clip-rule="evenodd" d="M22.5828 24.0348C22.8812 27.6016 20.8063 27.5044 20.501 26.3039C20.1818 25.0202 22.1109 18.3933 22.5828 24.0348Z" fill="#637D2A"/>
<path fill-rule="evenodd" clip-rule="evenodd" d="M25.539 33.9786C25.5112 37.5592 23.4503 37.2678 23.2629 36.0465C23.0617 34.7419 25.5806 28.3162 25.539 33.9786Z" fill="#506422"/>
<path fill-rule="evenodd" clip-rule="evenodd" d="M21.9652 40.0228C23.3878 43.312 25.1711 42.2364 24.8728 41.036C24.5466 39.7522 19.71 34.8254 21.9652 40.0228Z" fill="#506422"/>
<path fill-rule="evenodd" clip-rule="evenodd" d="M26.6493 49.8764C28.0719 53.1655 29.8552 52.09 29.5568 50.8895C29.2307 49.6057 24.3941 44.6789 26.6493 49.8764Z" fill="#506422"/>
<path fill-rule="evenodd" clip-rule="evenodd" d="M29.4942 43.7837C30.5837 47.1978 28.5297 47.5586 27.9676 46.4553C27.3708 45.2756 27.7733 38.392 29.4942 43.7837Z" fill="#506422"/>
<path fill-rule="evenodd" clip-rule="evenodd" d="M21.431 27.678C22.5899 30.5647 21.2159 31.3349 20.4179 30.7867C20.3 30.7035 20.1889 30.5924 20.1057 30.4536C19.4256 29.3156 19.3285 22.4181 21.431 27.678Z" fill="#637D2A"/>
<path fill-rule="evenodd" clip-rule="evenodd" d="M16.7539 21.7935C17.1355 23.8892 18.0237 23.459 17.9821 22.7234C17.9405 21.9323 16.1502 18.4905 16.7539 21.7935Z" fill="#7B913F"/>
<path fill-rule="evenodd" clip-rule="evenodd" d="M17.4826 25.8598C18.5096 28.3023 19.4811 27.539 19.2313 26.6578C18.9606 25.7071 15.8588 22.0016 17.4826 25.8598Z" fill="#7B913F"/>
<path fill-rule="evenodd" clip-rule="evenodd" d="M17.7324 29.4404C18.7594 31.876 19.7239 31.1196 19.4741 30.2384C19.2035 29.2808 16.1017 25.5822 17.7324 29.4404Z" fill="#7B913F"/>
<path fill-rule="evenodd" clip-rule="evenodd" d="M20.0639 28.1776C20.1749 30.8214 21.3476 30.4537 21.4239 29.5307C21.5003 28.5454 19.8834 23.9933 20.0639 28.1776Z" fill="#6D852C"/>
<path fill-rule="evenodd" clip-rule="evenodd" d="M21.313 24.0419C20.6469 26.6025 21.8751 26.5886 22.2151 25.7351C22.5759 24.8191 22.3678 19.9894 21.313 24.0419Z" fill="#7B913F"/>
<path fill-rule="evenodd" clip-rule="evenodd" d="M22.826 27.893C22.1598 30.4535 23.388 30.4397 23.728 29.5862C24.0958 28.6632 23.8876 23.8405 22.826 27.893Z" fill="#7B913F"/>
<path fill-rule="evenodd" clip-rule="evenodd" d="M20.7232 21.0372C19.7794 23.2369 20.8828 23.3896 21.2991 22.6679C21.7502 21.8977 22.2082 17.5607 20.7232 21.0372Z" fill="#7B913F"/>
<path fill-rule="evenodd" clip-rule="evenodd" d="M19.5434 19.4896C20.043 21.2383 19.1964 21.4673 18.9466 20.9052C18.6829 20.3015 18.7523 16.7209 19.5434 19.4896Z" fill="#7B913F"/>
<path fill-rule="evenodd" clip-rule="evenodd" d="M20.3831 22.9177C21.7987 26.2069 19.7933 26.769 19.1271 25.7281C18.4124 24.6109 18.1418 17.7134 20.3831 22.9177Z" fill="#637D2A"/>
<path fill-rule="evenodd" clip-rule="evenodd" d="M18.7594 23.4103C18.8705 26.0541 20.0432 25.6794 20.1195 24.7634C20.1958 23.778 18.5859 19.2259 18.7594 23.4103Z" fill="#7B913F"/>
<path fill-rule="evenodd" clip-rule="evenodd" d="M24.3455 33.5832C23.6793 36.1437 24.9076 36.1299 25.2476 35.2763C25.6154 34.3534 25.4002 29.5307 24.3455 33.5832Z" fill="#637D2A"/>
<path fill-rule="evenodd" clip-rule="evenodd" d="M22.8463 39.5369C24.248 41.3481 23.2696 41.7575 22.7006 41.1885C22.0969 40.5848 20.6258 36.6711 22.8463 39.5369Z" fill="#637D2A"/>
<path fill-rule="evenodd" clip-rule="evenodd" d="M29.3834 43.7767C30.001 45.9833 28.9393 45.9903 28.627 45.2547C28.2939 44.4636 28.405 40.2793 29.3834 43.7767Z" fill="#637D2A"/>
<path fill-rule="evenodd" clip-rule="evenodd" d="M27.7387 49.4393C29.2445 51.1671 28.2869 51.632 27.6901 51.0977C27.0517 50.5287 25.3586 46.7052 27.7387 49.4393Z" fill="#637D2A"/>
<path fill-rule="evenodd" clip-rule="evenodd" d="M43.5532 23.6393C42.0127 24.2916 41.2286 24.9369 40.4584 26.4705C39.2579 28.8645 39.1538 32.8337 40.8816 34.964L41.4576 35.5261L41.0551 34.8461C39.8824 32.6741 39.7714 29.8082 40.7498 27.5322C41.4368 25.9223 42.1723 25.0896 43.803 24.4651C44.032 24.3957 44.1569 24.1598 44.0945 23.9308C44.0181 23.7018 43.7822 23.5769 43.5532 23.6393Z" fill="#506422"/>
<path fill-rule="evenodd" clip-rule="evenodd" d="M38.9595 32.0289C39.6326 32.2925 40.4306 32.6673 40.722 33.0073C41.0274 33.3612 41.2425 33.729 41.2425 33.729L40.2987 33.8469L40.9094 35.2903L40.3681 35.2001C40.3681 35.2001 40.4861 35.8454 40.3126 36.4561C40.1391 37.0667 39.8685 37.4831 39.8685 37.4831C39.8685 37.4831 38.8554 35.887 38.5917 35.2833C38.328 34.6796 38.3697 35.0613 38.3697 35.0613L38.3905 36.5948L38.0713 36.574C38.0713 36.574 37.6202 37.4206 37.4398 37.7467C37.2594 38.0729 37.2524 38.0798 37.2524 38.0798C37.2524 38.0798 36.4128 37.2124 36.503 37.1361C36.5932 37.0598 36.1352 37.7953 35.1568 38.2394C34.1784 38.6905 33.5677 38.7599 33.5677 38.7599C33.5677 38.7599 33.9147 36.4977 34.227 36.116C34.5323 35.7413 34.6641 35.7552 34.5323 35.7413C34.4004 35.7274 33.9494 35.7066 33.9494 35.7066L35.8022 33.8539C35.8022 33.8539 34.1784 35.1307 33.769 35.4013C33.3665 35.6719 33.3526 35.7483 33.3526 35.7483L33.0126 35.318C33.0126 35.318 32.6726 35.7691 32.2562 36.0328C31.8399 36.2965 31.7219 36.2687 31.7219 36.2687L31.6248 36.0952L30.1051 36.4699L30.5561 35.214H30.3549L30.7296 34.756C30.7296 34.756 29.5153 35.096 29.1752 35.1376C28.8352 35.1792 28.9046 34.5894 28.9046 34.5894C28.9046 34.5894 27.0241 34.3604 26.5314 34.2147C26.5175 34.2147 26.5176 34.2078 26.5245 34.2008C26.5176 34.1939 26.5176 34.1939 26.5245 34.187C26.9131 33.8886 28.5368 33.0489 28.5368 33.0489C28.5368 33.0489 28.1968 32.5285 28.5299 32.4522C28.863 32.3758 30.1398 32.2856 30.1398 32.2856L29.5847 31.9942L29.7651 31.9248L28.7728 30.9186L30.348 30.7521L30.3619 30.5647C30.3619 30.5647 30.459 30.5022 30.9656 30.6063C31.4652 30.7104 31.9856 31.0088 31.9856 31.0088L32.0966 30.4953C32.0966 30.4953 32.1383 30.5578 32.6379 30.6757C33.1375 30.7937 35.2193 31.4252 35.2193 31.4252L32.6587 30.3357C32.6587 30.3357 33.0681 30.1692 33.1861 30.1137C33.3041 30.0581 33.1861 30.1137 32.7281 29.8708C32.2701 29.6279 30.9031 27.6641 30.9031 27.6641C30.9031 27.6641 31.4999 27.5253 32.6032 27.6156C33.7065 27.7058 34.4698 28.2262 34.3519 28.1846C34.2339 28.1429 34.6017 27.0674 34.6017 27.0674C34.6017 27.0674 34.6156 27.0674 34.9278 27.3102C35.2401 27.5462 36.052 28.1776 36.052 28.1776L36.3365 28.0527L37.0235 29.4683C37.0235 29.4683 37.1692 29.8361 37.1275 29.1907C37.0859 28.5454 37.2802 26.7412 37.2802 26.7412C37.2802 26.7412 37.7243 27.0327 38.1615 27.5392C38.6056 28.0388 38.7929 28.6772 38.7929 28.6772L39.2509 28.4066L39.355 29.9402L40.2779 29.7389C40.2779 29.7389 40.2502 30.1484 40.1253 30.5716C40.0142 30.9464 39.4591 31.5639 38.9595 32.0289Z" fill="#7B913F"/>
<path fill-rule="evenodd" clip-rule="evenodd" d="M39.2439 32.1399C39.8406 32.3897 40.4652 32.7089 40.715 33.0004C41.0203 33.3543 41.2354 33.722 41.2354 33.722L40.2917 33.84L40.9023 35.2833L40.3611 35.1931C40.3611 35.1931 40.479 35.8385 40.3056 36.4491C40.1321 37.0598 39.8614 37.4761 39.8614 37.4761C39.8614 37.4761 38.8483 35.8801 38.5846 35.2764C38.3209 34.6727 38.3626 35.0544 38.3626 35.0544L38.3834 36.5879L38.0642 36.5671C38.0642 36.5671 37.6132 37.4137 37.4327 37.7398C37.2523 38.066 37.2454 38.0729 37.2454 38.0729C37.2454 38.0729 36.4057 37.2055 36.4959 37.1292C36.5862 37.0528 36.1282 37.7884 35.1497 38.2325C34.1713 38.6835 33.5607 38.7529 33.5607 38.7529C33.5607 38.7529 33.9076 36.4908 34.2199 36.1091C34.5252 35.7344 34.6571 35.7483 34.5252 35.7344C34.3934 35.7205 33.9423 35.6997 33.9423 35.6997L35.7951 33.8469C35.7951 33.8469 34.1713 35.1237 33.7619 35.3944C33.3594 35.665 33.3456 35.7413 33.3456 35.7413L33.0055 35.3111C33.0055 35.3111 32.6655 35.7621 32.2492 36.0258C31.8328 36.2895 31.7149 36.2618 31.7149 36.2618L31.6177 36.0883L30.098 36.463L30.5491 35.207H30.3478L30.7226 34.749C30.7226 34.749 29.5082 35.089 29.1682 35.1307C28.8282 35.1723 28.8976 34.5825 28.8976 34.5825C28.8976 34.5825 27.017 34.3535 26.5244 34.2078C26.5105 34.2078 26.5105 34.2008 26.5174 34.1939C26.5105 34.187 26.5105 34.1869 26.5174 34.18H26.5244C29.8968 33.722 29.9523 33.7012 29.9523 33.7012L36.6486 32.2371L39.2439 32.1399Z" fill="#687E2C"/>
<path fill-rule="evenodd" clip-rule="evenodd" d="M33.3667 34.9502C31.6527 35.6857 29.9179 37.6773 29.9665 39.6341C29.3697 40.1268 28.9603 41.1052 29.1962 42.8261C29.3489 43.9572 29.6056 44.4638 29.5293 42.8747C29.4807 41.924 29.3975 40.9248 29.8555 40.3141C29.904 40.2447 29.9595 40.1892 30.022 40.1337C30.4453 41.9796 32.9226 41.3065 32.4091 39.9186C32.2217 39.419 31.4029 39.0859 30.6257 39.301C30.7784 37.7536 32.2286 36.1506 33.5748 35.5677C33.7414 35.5122 33.8316 35.3249 33.7691 35.1514C33.7206 34.9779 33.5401 34.8947 33.3667 34.9502ZM30.6326 39.8076C31.1184 39.6619 31.6319 39.7382 31.8192 40.0435C32.1384 40.564 30.7784 41.1122 30.6326 39.8076Z" fill="#687E2C"/>
<path fill-rule="evenodd" clip-rule="evenodd" d="M42.7203 33.1738C40.0834 34.3188 37.7935 35.7691 37.7519 37.5316C37.7172 39.2872 38.4805 43.5271 38.8968 43.9504C39.3201 44.3667 47.1128 49.4878 47.8345 50.0638C48.5631 50.6397 49.1321 52.319 50.2771 50.487C51.422 48.6551 52.8723 46.5872 51.1584 43.2634C49.4444 39.9326 46.9255 33.2849 42.7203 33.1738Z" fill="#4B2747"/>
<path fill-rule="evenodd" clip-rule="evenodd" d="M51.5124 50.6535C52.5671 50.6535 53.4276 49.7931 53.4276 48.7383C53.4276 47.6836 52.5671 46.8162 51.5124 46.8162C50.4576 46.8162 49.5972 47.6766 49.5972 48.7383C49.5972 49.7861 50.4576 50.6535 51.5124 50.6535Z" fill="#61345E"/>
<path fill-rule="evenodd" clip-rule="evenodd" d="M45.7875 45.3868C47.0158 45.3868 48.015 44.3876 48.015 43.1594C48.015 41.9311 47.0158 40.9319 45.7875 40.9319C44.5593 40.9319 43.5601 41.9311 43.5601 43.1594C43.5601 44.3876 44.5593 45.3868 45.7875 45.3868Z" fill="#61345E"/>
<path fill-rule="evenodd" clip-rule="evenodd" d="M49.028 39.7242C50.2562 39.7242 51.2555 38.725 51.2555 37.4968C51.2555 36.2685 50.2562 35.2693 49.028 35.2693C47.7998 35.2693 46.8005 36.2685 46.8005 37.4968C46.8005 38.725 47.7998 39.7242 49.028 39.7242Z" fill="#61345E"/>
<path fill-rule="evenodd" clip-rule="evenodd" d="M49.7289 43.9781C50.9572 43.9781 51.9564 42.9789 51.9564 41.7507C51.9564 40.5224 50.9572 39.5232 49.7289 39.5232C48.5007 39.5232 47.5015 40.5224 47.5015 41.7507C47.5015 42.9789 48.5007 43.9781 49.7289 43.9781Z" fill="#61345E"/>
<path fill-rule="evenodd" clip-rule="evenodd" d="M42.9562 40.1337C44.1845 40.1337 45.1837 39.1344 45.1837 37.9062C45.1837 36.6779 44.1845 35.6787 42.9562 35.6787C41.728 35.6787 40.7288 36.6779 40.7288 37.9062C40.7288 39.1275 41.728 40.1337 42.9562 40.1337Z" fill="#61345E"/>
<path fill-rule="evenodd" clip-rule="evenodd" d="M46.433 36.9486C47.6613 36.9486 48.6605 35.9494 48.6605 34.7211C48.6605 33.4929 47.6613 32.4937 46.433 32.4937C45.2048 32.4937 44.2056 33.4929 44.2056 34.7211C44.2056 35.9494 45.2118 36.9486 46.433 36.9486Z" fill="#61345E"/>
<path fill-rule="evenodd" clip-rule="evenodd" d="M42.3249 35.8385C43.5531 35.8385 44.5524 34.8392 44.5524 33.611C44.5524 32.3828 43.5531 31.3835 42.3249 31.3835C41.0966 31.3835 40.0974 32.3828 40.0974 33.611C40.0974 34.8392 41.1036 35.8385 42.3249 35.8385Z" fill="#61345E"/>
<path fill-rule="evenodd" clip-rule="evenodd" d="M39.0705 37.9825C40.2987 37.9825 41.298 36.9833 41.298 35.7551C41.298 34.5268 40.2987 33.5276 39.0705 33.5276C37.8423 33.5276 36.843 34.5268 36.843 35.7551C36.843 36.9833 37.8423 37.9825 39.0705 37.9825Z" fill="#61345E"/>
<path fill-rule="evenodd" clip-rule="evenodd" d="M38.7026 41.4662C39.9308 41.4662 40.93 40.4669 40.93 39.2387C40.93 38.0105 39.9308 37.0112 38.7026 37.0112C37.4743 37.0112 36.4751 38.0105 36.4751 39.2387C36.4751 40.46 37.4743 41.4662 38.7026 41.4662Z" fill="#61345E"/>
<path fill-rule="evenodd" clip-rule="evenodd" d="M48.1123 53.0892C49.3405 53.0892 50.3397 52.09 50.3397 50.8617C50.3397 49.6335 49.3405 48.6343 48.1123 48.6343C46.884 48.6343 45.8848 49.6335 45.8848 50.8617C45.8779 52.09 46.884 53.0892 48.1123 53.0892Z" fill="#61345E"/>
<path fill-rule="evenodd" clip-rule="evenodd" d="M45.184 50.5702C46.4123 50.5702 47.4115 49.5709 47.4115 48.3427C47.4115 47.1145 46.4123 46.1152 45.184 46.1152C43.9558 46.1152 42.9565 47.1145 42.9565 48.3427C42.9565 49.5709 43.9558 50.5702 45.184 50.5702Z" fill="#61345E"/>
<path fill-rule="evenodd" clip-rule="evenodd" d="M42.6093 48.0028C43.8375 48.0028 44.8368 47.0036 44.8368 45.7753C44.8368 44.5471 43.8375 43.5479 42.6093 43.5479C41.3811 43.5479 40.3818 44.5471 40.3818 45.7753C40.3818 46.9966 41.388 48.0028 42.6093 48.0028Z" fill="#61345E"/>
<path fill-rule="evenodd" clip-rule="evenodd" d="M38.4667 45.3383C39.695 45.3383 40.6942 44.339 40.6942 43.1108C40.6942 41.8825 39.695 40.8833 38.4667 40.8833C37.2385 40.8833 36.2393 41.8825 36.2393 43.1108C36.2393 44.3321 37.2385 45.3383 38.4667 45.3383Z" fill="#61345E"/>
<path fill-rule="evenodd" clip-rule="evenodd" d="M52.2202 54.1857C53.4484 54.1857 54.4476 53.1864 54.4476 51.9582C54.4476 50.7299 53.4484 49.7307 52.2202 49.7307C50.9919 49.7307 49.9927 50.7299 49.9927 51.9582C49.9927 53.1795 50.9919 54.1857 52.2202 54.1857Z" fill="#61345E"/>
<path fill-rule="evenodd" clip-rule="evenodd" d="M51.0546 47.3505C52.2829 47.3505 53.2821 46.3512 53.2821 45.123C53.2821 43.8948 52.2829 42.8955 51.0546 42.8955C49.8264 42.8955 48.8271 43.8948 48.8271 45.123C48.8271 46.3512 49.8264 47.3505 51.0546 47.3505Z" fill="#61345E"/>
<path fill-rule="evenodd" clip-rule="evenodd" d="M48.0844 49.016C49.3126 49.016 50.3119 48.0168 50.3119 46.7885C50.3119 45.5603 49.3126 44.561 48.0844 44.561C46.8562 44.561 45.8569 45.5603 45.8569 46.7885C45.8569 48.0168 46.8562 49.016 48.0844 49.016Z" fill="#61345E"/>
<path fill-rule="evenodd" clip-rule="evenodd" d="M41.5131 44.0961C42.7413 44.0961 43.7406 43.0968 43.7406 41.8686C43.7406 40.6404 42.7413 39.6411 41.5131 39.6411C40.2849 39.6411 39.2856 40.6404 39.2856 41.8686C39.2856 43.0899 40.2849 44.0961 41.5131 44.0961Z" fill="#61345E"/>
<path fill-rule="evenodd" clip-rule="evenodd" d="M46.1415 41.7228C47.3698 41.7228 48.369 40.7235 48.369 39.4953C48.369 38.2671 47.3698 37.2678 46.1415 37.2678C44.9133 37.2678 43.9141 38.2671 43.9141 39.4953C43.9141 40.7235 44.9133 41.7228 46.1415 41.7228Z" fill="#61345E"/>
<path fill-rule="evenodd" clip-rule="evenodd" d="M45.8778 32.938C46.7105 32.5286 47.7375 32.9172 48.1747 33.8123C48.6118 34.7075 48.2996 35.7622 47.4738 36.1716C46.6411 36.581 45.6141 36.1855 45.1769 35.2973C44.7328 34.4022 45.052 33.3474 45.8778 32.938Z" fill="#6E3B6E"/>
<path fill-rule="evenodd" clip-rule="evenodd" d="M41.6101 31.9108C42.3872 31.4112 43.4559 31.6818 43.9971 32.5145C44.5384 33.3542 44.3441 34.4367 43.5669 34.9363C42.7897 35.4359 41.7211 35.1653 41.1798 34.3326C40.6386 33.4999 40.8329 32.4105 41.6101 31.9108Z" fill="#6E3B6E"/>
<path fill-rule="evenodd" clip-rule="evenodd" d="M38.0294 34.1523C38.6678 33.4862 39.7711 33.507 40.4859 34.2009C41.2006 34.8948 41.263 35.9912 40.6177 36.6574C39.9793 37.3235 38.876 37.3027 38.1612 36.6088C37.4465 35.9149 37.391 34.8185 38.0294 34.1523Z" fill="#6E3B6E"/>
<path fill-rule="evenodd" clip-rule="evenodd" d="M37.5507 37.5593C38.1891 36.8932 39.2924 36.914 40.0072 37.6079C40.7219 38.3018 40.7844 39.3982 40.139 40.0644C39.5006 40.7305 38.3973 40.7097 37.6826 40.0158C36.9678 39.3219 36.9054 38.2255 37.5507 37.5593Z" fill="#6E3B6E"/>
<path fill-rule="evenodd" clip-rule="evenodd" d="M41.7905 36.3935C42.4358 35.7274 43.5322 35.7482 44.2469 36.4421C44.9617 37.136 45.0241 38.2324 44.3788 38.8986C43.7404 39.5648 42.637 39.5439 41.9223 38.85C41.2076 38.1561 41.1451 37.0597 41.7905 36.3935Z" fill="#6E3B6E"/>
<path fill-rule="evenodd" clip-rule="evenodd" d="M44.9896 38.1352C45.628 37.4691 46.7313 37.4899 47.4461 38.1838C48.1608 38.8777 48.2232 39.9741 47.5848 40.6403C46.9395 41.3064 45.8431 41.2856 45.1214 40.5917C44.4067 39.8978 44.3512 38.7945 44.9896 38.1352Z" fill="#6E3B6E"/>
<path fill-rule="evenodd" clip-rule="evenodd" d="M48.0982 36.0605C48.7366 35.3944 49.84 35.4152 50.5547 36.1091C51.2694 36.803 51.3319 37.8994 50.6865 38.5656C50.0481 39.2317 48.9448 39.2109 48.2301 38.517C47.5153 37.8231 47.4598 36.7267 48.0982 36.0605Z" fill="#6E3B6E"/>
<path fill-rule="evenodd" clip-rule="evenodd" d="M48.8549 40.1754C49.4378 39.5717 50.4301 39.5925 51.0823 40.2171C51.7277 40.8416 51.7832 41.8408 51.2072 42.4376C50.6244 43.0413 49.6321 43.0205 48.9798 42.3959C48.3275 41.7714 48.272 40.7791 48.8549 40.1754Z" fill="#6E3B6E"/>
<path fill-rule="evenodd" clip-rule="evenodd" d="M50.4647 43.7145C51.0476 43.1108 52.0399 43.1316 52.6922 43.7561C53.3375 44.3806 53.3931 45.3729 52.8171 45.9766C52.2342 46.5803 51.2419 46.5595 50.5896 45.935C49.9373 45.3105 49.8818 44.3113 50.4647 43.7145Z" fill="#6E3B6E"/>
<path fill-rule="evenodd" clip-rule="evenodd" d="M46.9672 45.3173C47.5501 44.7136 48.5424 44.7344 49.1946 45.3589C49.84 45.9834 49.8955 46.9757 49.3195 47.5794C48.7367 48.1831 47.7444 48.1623 47.0921 47.5378C46.4398 46.9202 46.3843 45.921 46.9672 45.3173Z" fill="#6E3B6E"/>
<path fill-rule="evenodd" clip-rule="evenodd" d="M44.8922 41.8407C45.4751 41.237 46.4674 41.2578 47.1197 41.8823C47.765 42.5069 47.8206 43.4992 47.2446 44.1029C46.6617 44.7066 45.6694 44.6858 45.0171 44.0612C44.3648 43.4367 44.3093 42.4444 44.8922 41.8407Z" fill="#6E3B6E"/>
<path fill-rule="evenodd" clip-rule="evenodd" d="M44.3717 47.1354C44.9546 46.5317 45.9469 46.5525 46.5992 47.177C47.2445 47.8015 47.3 48.8008 46.7241 49.3975C46.1412 50.0012 45.1489 49.9804 44.4966 49.3559C43.8443 48.7314 43.7888 47.7391 44.3717 47.1354Z" fill="#6E3B6E"/>
<path fill-rule="evenodd" clip-rule="evenodd" d="M41.4855 44.5819C42.0684 43.9782 43.0607 43.999 43.713 44.6235C44.3583 45.2481 44.4138 46.2404 43.8379 46.8441C43.255 47.4478 42.2627 47.427 41.6104 46.8024C40.9581 46.1779 40.9026 45.1856 41.4855 44.5819Z" fill="#6E3B6E"/>
<path fill-rule="evenodd" clip-rule="evenodd" d="M47.1129 49.578C47.6958 48.9743 48.6881 48.9951 49.3404 49.6196C49.9857 50.2442 50.0413 51.2365 49.4653 51.8402C48.8824 52.4439 47.8901 52.4231 47.2378 51.7986C46.5855 51.174 46.53 50.1817 47.1129 49.578Z" fill="#6E3B6E"/>
<path fill-rule="evenodd" clip-rule="evenodd" d="M50.6867 47.2811C51.2695 46.6774 52.2618 46.6982 52.9141 47.3228C53.5595 47.9473 53.615 48.9465 53.039 49.5433C52.4561 50.147 51.4638 50.1262 50.8116 49.5017C50.1593 48.8772 50.1038 47.8848 50.6867 47.2811Z" fill="#6E3B6E"/>
<path fill-rule="evenodd" clip-rule="evenodd" d="M51.4636 50.591C51.9979 50.0359 52.9208 50.0498 53.5245 50.6326C54.1282 51.2086 54.1768 52.1315 53.6355 52.6936C53.1012 53.2487 52.1783 53.2348 51.5746 52.6519C50.9709 52.0691 50.9223 51.1461 51.4636 50.591Z" fill="#6E3B6E"/>
<path fill-rule="evenodd" clip-rule="evenodd" d="M40.2919 40.5225C40.9303 39.8563 42.0336 39.8771 42.7484 40.571C43.4631 41.2649 43.5256 42.3613 42.8802 43.0275C42.2418 43.6937 41.1385 43.6728 40.4238 42.9789C39.709 42.285 39.6466 41.1817 40.2919 40.5225Z" fill="#6E3B6E"/>
<path fill-rule="evenodd" clip-rule="evenodd" d="M36.8501 41.8547C37.4954 41.1886 38.5918 41.2094 39.3135 41.9033C40.0282 42.5972 40.0907 43.6936 39.4453 44.3598C38.8069 45.0259 37.7036 45.0051 36.9889 44.3112C36.2672 43.6173 36.2047 42.5139 36.8501 41.8547Z" fill="#6E3B6E"/>
<path fill-rule="evenodd" clip-rule="evenodd" d="M50.1384 36.0188C50.9294 36.5115 51.0752 37.6704 50.52 37.3373C50.4368 37.2887 50.2425 36.9071 49.729 36.6642C49.3542 36.4838 48.6187 36.4768 48.584 36.2617C48.473 35.6857 49.611 35.6857 50.1384 36.0188Z" fill="#7D4F7C"/>
<path fill-rule="evenodd" clip-rule="evenodd" d="M47.4738 33.3126C48.2649 33.8052 48.4106 34.9641 47.8555 34.631C47.7722 34.5824 47.5779 34.2008 47.0644 33.9579C46.6897 33.7775 45.9541 33.7705 45.9194 33.5554C45.8084 32.9795 46.9464 32.9864 47.4738 33.3126Z" fill="#7D4F7C"/>
<path fill-rule="evenodd" clip-rule="evenodd" d="M43.3242 32.126C44.1153 32.6187 44.261 33.7776 43.7059 33.4445C43.6226 33.3959 43.4283 33.0143 42.9148 32.7714C42.5401 32.591 41.8046 32.584 41.7699 32.3689C41.6658 31.7999 42.8038 31.8068 43.3242 32.126Z" fill="#7D4F7C"/>
<path fill-rule="evenodd" clip-rule="evenodd" d="M40.0351 34.0897C40.8262 34.5823 40.9719 35.7412 40.4167 35.4081C40.3335 35.3595 40.1392 34.9779 39.6257 34.735C39.251 34.5546 38.5154 34.5476 38.4807 34.3325C38.3697 33.7566 39.5077 33.7635 40.0351 34.0897Z" fill="#7D4F7C"/>
<path fill-rule="evenodd" clip-rule="evenodd" d="M43.8792 36.4629C44.6772 36.9556 44.816 38.1145 44.2608 37.7814C44.1776 37.7328 43.9833 37.3512 43.4698 37.1083C43.0951 36.9279 42.3664 36.9209 42.3248 36.7058C42.2207 36.1299 43.3587 36.1368 43.8792 36.4629Z" fill="#7D4F7C"/>
<path fill-rule="evenodd" clip-rule="evenodd" d="M47.0643 38.0521C47.8553 38.5447 48.0011 39.7036 47.4459 39.3705C47.3627 39.3219 47.1684 38.9403 46.6549 38.6974C46.2801 38.517 45.5446 38.51 45.5099 38.2949C45.4058 37.719 46.5369 37.7259 47.0643 38.0521Z" fill="#7D4F7C"/>
<path fill-rule="evenodd" clip-rule="evenodd" d="M50.6934 40.1614C51.4845 40.6541 51.6302 41.813 51.0751 41.4799C50.9918 41.4313 50.7975 41.0497 50.284 40.8068C49.9093 40.6333 49.1807 40.6194 49.139 40.4043C49.035 39.8284 50.166 39.8353 50.6934 40.1614Z" fill="#7D4F7C"/>
<path fill-rule="evenodd" clip-rule="evenodd" d="M52.2825 43.7491C53.0805 44.2417 53.2193 45.4006 52.6642 45.0675C52.5809 45.0189 52.3866 44.6373 51.8731 44.3944C51.4984 44.214 50.7628 44.2071 50.7281 43.9919C50.624 43.4229 51.7621 43.4229 52.2825 43.7491Z" fill="#7D4F7C"/>
<path fill-rule="evenodd" clip-rule="evenodd" d="M52.6642 47.406C53.3582 47.9681 53.3512 49.0853 52.8655 48.7036C52.7961 48.6481 52.6504 48.2595 52.1993 47.9681C51.8662 47.753 51.1723 47.6558 51.1654 47.4476C51.1307 46.8856 52.2062 47.0313 52.6642 47.406Z" fill="#7D4F7C"/>
<path fill-rule="evenodd" clip-rule="evenodd" d="M53.351 50.6049C54.0449 51.167 54.038 52.2842 53.5522 51.9026C53.4828 51.8471 53.3371 51.4585 52.8861 51.167C52.553 50.9519 51.8591 50.8548 51.8521 50.6466C51.8174 50.0914 52.893 50.2302 53.351 50.6049Z" fill="#7D4F7C"/>
<path fill-rule="evenodd" clip-rule="evenodd" d="M49.0212 49.7376C49.7151 50.2996 49.7081 51.4168 49.2224 51.0352C49.153 50.9797 49.0073 50.5911 48.5562 50.2996C48.2232 50.0845 47.5292 49.9874 47.5223 49.7792C47.4876 49.2171 48.5632 49.3628 49.0212 49.7376Z" fill="#7D4F7C"/>
<path fill-rule="evenodd" clip-rule="evenodd" d="M48.9101 45.477C49.604 46.0391 49.5971 47.1563 49.1113 46.7746C49.0419 46.7191 48.8962 46.3305 48.4452 46.0391C48.1121 45.824 47.4182 45.7268 47.4112 45.5186C47.3765 44.9635 48.4521 45.1092 48.9101 45.477Z" fill="#7D4F7C"/>
<path fill-rule="evenodd" clip-rule="evenodd" d="M46.8561 41.8129C47.55 42.3819 47.5431 43.4922 47.0574 43.1106C46.988 43.055 46.8422 42.6665 46.3912 42.375C46.0581 42.1599 45.3642 42.0627 45.3573 41.8546C45.3226 41.2994 46.3981 41.4452 46.8561 41.8129Z" fill="#7D4F7C"/>
<path fill-rule="evenodd" clip-rule="evenodd" d="M42.4291 40.7028C43.123 41.2649 43.1161 42.3821 42.6304 42.0005C42.561 41.945 42.4153 41.5563 41.9642 41.2649C41.6311 41.0498 40.9372 40.9526 40.9303 40.7445C40.8956 40.1893 41.9711 40.3351 42.4291 40.7028Z" fill="#7D4F7C"/>
<path fill-rule="evenodd" clip-rule="evenodd" d="M43.3588 44.908C44.0527 45.477 44.0458 46.5873 43.5601 46.2056C43.4907 46.1501 43.3449 45.7615 42.8939 45.4701C42.5608 45.2549 41.8669 45.1578 41.86 44.9496C41.8253 44.3875 42.9008 44.5332 43.3588 44.908Z" fill="#7D4F7C"/>
<path fill-rule="evenodd" clip-rule="evenodd" d="M46.2802 47.2395C46.9741 47.8016 46.9672 48.9188 46.4814 48.5371C46.412 48.4816 46.2663 48.093 45.8153 47.8016C45.4822 47.5865 44.7883 47.4893 44.7813 47.2811C44.7466 46.7191 45.8222 46.8648 46.2802 47.2395Z" fill="#7D4F7C"/>
<path fill-rule="evenodd" clip-rule="evenodd" d="M39.6188 37.6358C40.3127 38.1978 40.3058 39.315 39.8201 38.9334C39.7507 38.8779 39.6049 38.4893 39.1539 38.1978C38.8208 37.9827 38.1269 37.8856 38.12 37.6774C38.0853 37.1153 39.1608 37.261 39.6188 37.6358Z" fill="#7D4F7C"/>
<path fill-rule="evenodd" clip-rule="evenodd" d="M38.7653 42.1115C39.4592 42.6736 39.4523 43.7908 38.9665 43.4092C38.8971 43.3537 38.7514 42.9651 38.3004 42.6736C37.9673 42.4585 37.2734 42.3614 37.2664 42.1532C37.2317 41.598 38.3073 41.7368 38.7653 42.1115Z" fill="#7D4F7C"/>
<path fill-rule="evenodd" clip-rule="evenodd" d="M17.3438 40.4182H35.1774H49.2223H67.0491L72.3575 99.0542H49.2223H35.1774H12.0422L17.3438 40.4182Z" fill="#B49061"/>
<path fill-rule="evenodd" clip-rule="evenodd" d="M24.2828 40.4182H42.1096H56.1544H73.9812L79.2827 99.0542H56.1544H42.1096H18.9744L24.2828 40.4182Z" fill="#E2C077"/>
<path fill-rule="evenodd" clip-rule="evenodd" d="M37.3699 49.0159C38.1194 49.0159 38.737 48.4053 38.737 47.6558C38.737 46.9064 38.1263 46.2888 37.3699 46.2888C36.6205 46.2888 36.0029 46.8995 36.0029 47.6558C36.0099 48.3983 36.6205 49.0159 37.3699 49.0159Z" fill="#764633"/>
<path fill-rule="evenodd" clip-rule="evenodd" d="M59.5133 49.0159C60.2627 49.0159 60.8803 48.4053 60.8803 47.6558C60.8803 46.9064 60.2696 46.2888 59.5133 46.2888C58.7638 46.2888 58.1462 46.8995 58.1462 47.6558C58.1532 48.3983 58.7638 49.0159 59.5133 49.0159Z" fill="#764633"/>
<path fill-rule="evenodd" clip-rule="evenodd" d="M58.8608 48.0443C58.8608 47.6696 59.1661 47.3643 59.5408 47.3643C59.9155 47.3643 60.2209 47.6696 60.2209 48.0443C60.2209 51.2849 58.9094 54.2202 56.786 56.3435C54.6626 58.4669 51.7273 59.7784 48.4867 59.7784C45.2461 59.7784 42.3109 58.4669 40.1944 56.3435C38.071 54.2202 36.7595 51.2849 36.7595 48.0443C36.7595 47.6696 37.0648 47.3643 37.4396 47.3643C37.8143 47.3643 38.1196 47.6696 38.1196 48.0443C38.1196 50.9102 39.2784 53.5054 41.159 55.379C43.0395 57.2595 45.6278 58.4184 48.4937 58.4184C51.3595 58.4184 53.9548 57.2595 55.8284 55.379C57.695 53.5054 58.8608 50.9102 58.8608 48.0443Z" fill="#E0A519"/>
<path fill-rule="evenodd" clip-rule="evenodd" d="M3.29905 105.549H89.9624C91.7457 105.549 93.2099 104.085 93.2099 102.302C93.2099 100.518 91.7527 99.0542 89.9624 99.0542H3.29905C1.51568 99.0542 0.0515137 100.518 0.0515137 102.302C0.0584528 104.085 1.51568 105.549 3.29905 105.549Z" fill="#EBEBEB"/>
</svg>
