<svg width="16" height="16" viewBox="0 0 16 16" fill="none" xmlns="http://www.w3.org/2000/svg">
<path fill-rule="evenodd" clip-rule="evenodd" d="M12.2438 12.2041C12.1588 12.1926 12.077 12.1807 11.9983 12.1683C10.2675 11.8932 10.0935 11.2778 9.86775 10.8061C9.68432 10.7269 9.59432 10.6632 9.50032 10.3366C9.45975 10.1972 9.38947 9.57834 9.41918 9.3372C9.56147 9.20377 9.66947 8.86491 9.71632 8.70748C9.84261 8.28634 9.87318 8.18405 9.99347 7.62291C10.0106 7.54291 10.056 7.51034 10.0929 7.49662C10.2049 7.45605 10.2306 7.36605 10.2672 7.29948C10.3538 7.14691 10.2795 7.07834 10.4146 6.70605C10.5872 6.28262 10.614 5.84662 10.4832 5.72148C10.3943 5.64234 10.3403 5.70148 10.2966 5.71748C10.2675 5.72891 10.29 5.65605 10.3163 5.55234C10.42 5.12577 10.4206 4.76434 10.4486 4.3272C10.4712 3.9732 10.4475 3.65034 10.4032 3.45005C10.3615 3.40862 10.2538 2.94434 10.1303 2.67291C9.91947 2.20662 9.28747 2.13434 9.07089 2.04091C8.55547 1.8252 7.91089 1.53291 7.14689 1.86291C6.80689 2.00948 6.35404 2.02377 5.86118 2.57834C5.74461 2.70862 5.53661 2.59662 5.30432 3.10405C5.06861 3.6012 5.05604 3.92862 5.10975 4.28405L5.09347 4.28491C5.09347 4.28491 5.09947 5.13548 5.20375 5.56205C5.22947 5.66605 5.25147 5.73834 5.2229 5.72748C5.17947 5.71148 5.11975 5.66005 5.03089 5.73948C4.89947 5.86462 4.96918 6.28262 5.14175 6.70605C5.27775 7.07834 5.18718 7.1892 5.33175 7.3852C5.38318 7.45491 5.43118 7.49177 5.48661 7.5152C5.52375 7.53005 5.57604 7.53462 5.60032 7.61234C5.75947 8.18948 5.7889 8.36662 5.95432 8.71005C6.02575 8.85834 6.10604 9.22948 6.25404 9.37348C6.27832 9.57662 6.25318 10.1621 6.22118 10.3366C6.16975 10.6112 6.07347 10.6906 5.8149 10.8061C5.67432 11.2632 5.30147 11.6769 3.74204 12.1552C3.6887 12.1716 3.63432 12.1879 3.5789 12.2041C3.54918 12.214 3.02109 12.6695 1.99461 13.5706C1.90729 13.6473 1.84541 13.7487 1.81723 13.8615C1.78905 13.9742 1.7959 14.0928 1.83687 14.2015C1.87785 14.3103 1.95099 14.4039 2.04655 14.47C2.14212 14.5361 2.25556 14.5715 2.37175 14.5715H13.488C13.6053 14.5715 13.7196 14.5355 13.8157 14.4684C13.9118 14.4012 13.9849 14.3062 14.0251 14.1961C14.0653 14.086 14.0706 13.9662 14.0405 13.8529C14.0103 13.7396 13.946 13.6384 13.8563 13.5629L12.2438 12.2041Z" fill="#E3B200"/>
</svg>
