<svg width="331" height="260" viewBox="0 0 331 260" fill="none" xmlns="http://www.w3.org/2000/svg">
<rect width="331" height="260" rx="20" fill="white"/>
<path opacity="0.4" d="M224.251 75.2753C224.669 75.6794 225.331 75.6794 225.749 75.2753V75.2753C226.046 74.9884 226.48 74.8961 226.868 75.0375V75.0375C227.414 75.2367 228.02 74.9671 228.237 74.428V74.428C228.391 74.0453 228.75 73.7843 229.162 73.7558V73.7558C229.742 73.7157 230.186 73.223 230.165 72.6422V72.6422C230.15 72.2298 230.372 71.8452 230.737 71.6518V71.6518C231.25 71.3793 231.455 70.7488 231.2 70.2266V70.2266C231.019 69.8558 231.065 69.4142 231.319 69.0892V69.0892C231.677 68.6315 231.608 67.9722 231.163 67.5989V67.5989C230.846 67.3339 230.709 66.9115 230.809 66.5112V66.5112C230.95 65.9474 230.619 65.3732 230.06 65.2135V65.2135C229.663 65.1 229.366 64.77 229.295 64.3636V64.3636C229.194 63.7911 228.658 63.4014 228.082 63.4828V63.4828C227.674 63.5405 227.268 63.3599 227.038 63.0176V63.0176C226.713 62.5355 226.064 62.3977 225.572 62.7061V62.7061C225.222 62.925 224.778 62.925 224.428 62.7061V62.7061C223.936 62.3977 223.287 62.5355 222.962 63.0176V63.0176C222.732 63.3599 222.326 63.5405 221.918 63.4828V63.4828C221.342 63.4014 220.806 63.7911 220.705 64.3636V64.3636C220.634 64.77 220.337 65.1 219.94 65.2135V65.2135C219.381 65.3732 219.05 65.9474 219.191 66.5112V66.5112C219.291 66.9115 219.154 67.3339 218.837 67.5989V67.5989C218.392 67.9722 218.323 68.6315 218.681 69.0892V69.0892C218.935 69.4142 218.981 69.8558 218.8 70.2266V70.2266C218.545 70.7488 218.75 71.3793 219.263 71.6518V71.6518C219.628 71.8452 219.85 72.2298 219.835 72.6422V72.6422C219.814 73.223 220.258 73.7157 220.838 73.7558V73.7558C221.25 73.7843 221.609 74.0453 221.763 74.428V74.428C221.98 74.9671 222.586 75.2367 223.132 75.0375V75.0375C223.52 74.8961 223.954 74.9884 224.251 75.2753V75.2753Z" fill="#F6D935"/>
<path opacity="0.4" d="M84.2507 50.2753C84.6685 50.6794 85.3315 50.6794 85.7493 50.2753V50.2753C86.0459 49.9884 86.4803 49.8961 86.8679 50.0375V50.0375C87.4139 50.2367 88.0196 49.9671 88.2369 49.428V49.428C88.3912 49.0453 88.7504 48.7843 89.1621 48.7558V48.7558C89.742 48.7157 90.1856 48.223 90.1648 47.6422V47.6422C90.1501 47.2298 90.3721 46.8452 90.7366 46.6518V46.6518C91.25 46.3793 91.4549 45.7488 91.1997 45.2266V45.2266C91.0185 44.8558 91.0649 44.4142 91.3192 44.0892V44.0892C91.6774 43.6315 91.6081 42.9722 91.1626 42.5989V42.5989C90.8463 42.3339 90.709 41.9115 90.8092 41.5112V41.5112C90.9503 40.9474 90.6188 40.3732 90.0599 40.2135V40.2135C89.6632 40.1 89.366 39.77 89.2947 39.3636V39.3636C89.1942 38.7911 88.6579 38.4014 88.0824 38.4828V38.4828C87.6738 38.5405 87.2681 38.3599 87.0376 38.0176V38.0176C86.713 37.5355 86.0645 37.3977 85.5718 37.7061V37.7061C85.222 37.925 84.778 37.925 84.4282 37.7061V37.7061C83.9355 37.3977 83.287 37.5355 82.9624 38.0176V38.0176C82.7319 38.3599 82.3262 38.5405 81.9176 38.4828V38.4828C81.3421 38.4014 80.8058 38.7911 80.7053 39.3636V39.3636C80.634 39.77 80.3368 40.1 79.9401 40.2135V40.2135C79.3812 40.3732 79.0497 40.9474 79.1908 41.5112V41.5112C79.291 41.9115 79.1537 42.3339 78.8374 42.5989V42.5989C78.3919 42.9722 78.3226 43.6315 78.6808 44.0892V44.0892C78.9351 44.4142 78.9815 44.8558 78.8003 45.2266V45.2266C78.5451 45.7488 78.75 46.3793 79.2634 46.6518V46.6518C79.6279 46.8452 79.8499 47.2298 79.8352 47.6422V47.6422C79.8144 48.223 80.258 48.7157 80.8379 48.7558V48.7558C81.2496 48.7843 81.6088 49.0453 81.7631 49.428V49.428C81.9804 49.9671 82.5861 50.2367 83.1321 50.0375V50.0375C83.5197 49.8961 83.9541 49.9884 84.2507 50.2753V50.2753Z" fill="#F6D935"/>
<path opacity="0.4" d="M171.125 32.6376C171.334 32.8397 171.666 32.8397 171.875 32.6376V32.6376C172.023 32.4942 172.24 32.448 172.434 32.5188V32.5188C172.707 32.6184 173.01 32.4836 173.118 32.214V32.214C173.196 32.0226 173.375 31.8921 173.581 31.8779V31.8779C173.871 31.8579 174.093 31.6115 174.082 31.3211V31.3211C174.075 31.1149 174.186 30.9226 174.368 30.8259V30.8259C174.625 30.6896 174.727 30.3744 174.6 30.1133V30.1133C174.509 29.9279 174.532 29.7071 174.66 29.5446V29.5446C174.839 29.3157 174.804 28.9861 174.581 28.7995V28.7995C174.423 28.667 174.355 28.4558 174.405 28.2556V28.2556C174.475 27.9737 174.309 27.6866 174.03 27.6067V27.6067C173.832 27.55 173.683 27.385 173.647 27.1818V27.1818C173.597 26.8955 173.329 26.7007 173.041 26.7414V26.7414C172.837 26.7703 172.634 26.6799 172.519 26.5088V26.5088C172.356 26.2677 172.032 26.1988 171.786 26.353V26.353C171.611 26.4625 171.389 26.4625 171.214 26.353V26.353C170.968 26.1988 170.644 26.2677 170.481 26.5088V26.5088C170.366 26.68 170.163 26.7703 169.959 26.7414V26.7414C169.671 26.7007 169.403 26.8955 169.353 27.1818V27.1818C169.317 27.385 169.168 27.55 168.97 27.6067V27.6067C168.691 27.6866 168.525 27.9737 168.595 28.2556V28.2556C168.645 28.4558 168.577 28.667 168.419 28.7995V28.7995C168.196 28.9861 168.161 29.3157 168.34 29.5446V29.5446C168.468 29.7071 168.491 29.9279 168.4 30.1133V30.1133C168.273 30.3744 168.375 30.6896 168.632 30.8259V30.8259C168.814 30.9226 168.925 31.1149 168.918 31.3211V31.3211C168.907 31.6115 169.129 31.8579 169.419 31.8779V31.8779C169.625 31.8921 169.804 32.0226 169.882 32.214V32.214C169.99 32.4836 170.293 32.6184 170.566 32.5188V32.5188C170.76 32.448 170.977 32.4942 171.125 32.6376V32.6376Z" fill="#F6D935"/>
<path opacity="0.4" d="M99.9113 127.431C100.24 127.748 100.76 127.748 101.089 127.431V127.431C101.322 127.205 101.663 127.133 101.968 127.244V127.244C102.397 127.4 102.873 127.188 103.043 126.765V126.765C103.164 126.464 103.447 126.259 103.77 126.237V126.237C104.226 126.205 104.574 125.818 104.558 125.362V125.362C104.546 125.038 104.721 124.736 105.007 124.584V124.584C105.411 124.369 105.572 123.874 105.371 123.464V123.464C105.229 123.172 105.265 122.825 105.465 122.57V122.57C105.747 122.21 105.692 121.692 105.342 121.399V121.399C105.094 121.191 104.986 120.859 105.064 120.545V120.545C105.175 120.102 104.915 119.65 104.476 119.525V119.525C104.164 119.436 103.93 119.176 103.874 118.857V118.857C103.795 118.407 103.374 118.101 102.922 118.165V118.165C102.601 118.21 102.282 118.068 102.101 117.8V117.8C101.846 117.421 101.336 117.312 100.949 117.555V117.555C100.674 117.727 100.326 117.727 100.051 117.555V117.555C99.6636 117.312 99.1541 117.421 98.899 117.8V117.8C98.7179 118.068 98.3992 118.21 98.0781 118.165V118.165C97.626 118.101 97.2045 118.407 97.1256 118.857V118.857C97.0696 119.176 96.8361 119.436 96.5243 119.525V119.525C96.0852 119.65 95.8248 120.102 95.9356 120.545V120.545C96.0143 120.859 95.9065 121.191 95.658 121.399V121.399C95.3079 121.692 95.2534 122.21 95.5349 122.57V122.57C95.7347 122.825 95.7712 123.172 95.6288 123.464V123.464C95.4283 123.874 95.5893 124.369 95.9926 124.584V124.584C96.279 124.736 96.4535 125.038 96.4419 125.362V125.362C96.4256 125.818 96.7742 126.205 97.2298 126.237V126.237C97.5532 126.259 97.8355 126.464 97.9567 126.765V126.765C98.1275 127.188 98.6033 127.4 99.0324 127.244V127.244C99.3369 127.133 99.6782 127.205 99.9113 127.431V127.431Z" fill="#F6D935"/>
<path opacity="0.4" d="M95.1254 82.6376C95.3343 82.8397 95.6657 82.8397 95.8746 82.6376V82.6376C96.0229 82.4942 96.2401 82.448 96.434 82.5188V82.5188C96.707 82.6184 97.0098 82.4836 97.1184 82.214V82.214C97.1956 82.0226 97.3752 81.8921 97.5811 81.8779V81.8779C97.871 81.8579 98.0928 81.6115 98.0824 81.3211V81.3211C98.075 81.1149 98.1861 80.9226 98.3683 80.8259V80.8259C98.625 80.6896 98.7275 80.3744 98.5998 80.1133V80.1133C98.5093 79.9279 98.5325 79.7071 98.6596 79.5446V79.5446C98.8387 79.3157 98.8041 78.9861 98.5813 78.7995V78.7995C98.4231 78.667 98.3545 78.4558 98.4046 78.2556V78.2556C98.4751 77.9737 98.3094 77.6866 98.03 77.6067V77.6067C97.8316 77.55 97.683 77.385 97.6473 77.1818V77.1818C97.5971 76.8955 97.3289 76.7007 97.0412 76.7414V76.7414C96.8369 76.7703 96.634 76.6799 96.5188 76.5088V76.5088C96.3565 76.2677 96.0322 76.1988 95.7859 76.353V76.353C95.611 76.4625 95.389 76.4625 95.2141 76.353V76.353C94.9678 76.1988 94.6435 76.2677 94.4812 76.5088V76.5088C94.366 76.68 94.1631 76.7703 93.9588 76.7414V76.7414C93.6711 76.7007 93.4029 76.8955 93.3527 77.1818V77.1818C93.317 77.385 93.1684 77.55 92.97 77.6067V77.6067C92.6906 77.6866 92.5249 77.9737 92.5954 78.2556V78.2556C92.6455 78.4558 92.5769 78.667 92.4187 78.7995V78.7995C92.1959 78.9861 92.1613 79.3157 92.3404 79.5446V79.5446C92.4675 79.7071 92.4907 79.9279 92.4002 80.1133V80.1133C92.2725 80.3744 92.375 80.6896 92.6317 80.8259V80.8259C92.8139 80.9226 92.925 81.1149 92.9176 81.3211V81.3211C92.9072 81.6115 93.129 81.8579 93.4189 81.8779V81.8779C93.6248 81.8921 93.8044 82.0226 93.8816 82.214V82.214C93.9902 82.4836 94.293 82.6184 94.566 82.5188V82.5188C94.7599 82.448 94.9771 82.4942 95.1254 82.6376V82.6376Z" fill="#F6D935"/>
<path opacity="0.4" d="M205.125 112.638C205.334 112.84 205.666 112.84 205.875 112.638V112.638C206.023 112.494 206.24 112.448 206.434 112.519V112.519C206.707 112.618 207.01 112.484 207.118 112.214V112.214C207.196 112.023 207.375 111.892 207.581 111.878V111.878C207.871 111.858 208.093 111.612 208.082 111.321V111.321C208.075 111.115 208.186 110.923 208.368 110.826V110.826C208.625 110.69 208.727 110.374 208.6 110.113V110.113C208.509 109.928 208.532 109.707 208.66 109.545V109.545C208.839 109.316 208.804 108.986 208.581 108.799V108.799C208.423 108.667 208.355 108.456 208.405 108.256V108.256C208.475 107.974 208.309 107.687 208.03 107.607V107.607C207.832 107.55 207.683 107.385 207.647 107.182V107.182C207.597 106.896 207.329 106.701 207.041 106.741V106.741C206.837 106.77 206.634 106.68 206.519 106.509V106.509C206.356 106.268 206.032 106.199 205.786 106.353V106.353C205.611 106.463 205.389 106.463 205.214 106.353V106.353C204.968 106.199 204.644 106.268 204.481 106.509V106.509C204.366 106.68 204.163 106.77 203.959 106.741V106.741C203.671 106.701 203.403 106.896 203.353 107.182V107.182C203.317 107.385 203.168 107.55 202.97 107.607V107.607C202.691 107.687 202.525 107.974 202.595 108.256V108.256C202.645 108.456 202.577 108.667 202.419 108.799V108.799C202.196 108.986 202.161 109.316 202.34 109.545V109.545C202.468 109.707 202.491 109.928 202.4 110.113V110.113C202.273 110.374 202.375 110.69 202.632 110.826V110.826C202.814 110.923 202.925 111.115 202.918 111.321V111.321C202.907 111.612 203.129 111.858 203.419 111.878V111.878C203.625 111.892 203.804 112.023 203.882 112.214V112.214C203.99 112.484 204.293 112.618 204.566 112.519V112.519C204.76 112.448 204.977 112.494 205.125 112.638V112.638Z" fill="#F6D935"/>
</svg>
