<svg width="12" height="14" viewBox="0 0 12 14" fill="none" xmlns="http://www.w3.org/2000/svg">
<g clip-path="url(#clip0_243_838)">
<path d="M10.125 0.87497C9.82659 0.87497 9.54044 1.01325 9.32946 1.25939C9.11848 1.50553 8.99996 1.83937 8.99995 2.18747C8.99996 2.53557 9.11848 2.86941 9.32946 3.11555C9.54044 3.36169 9.82659 3.49997 10.125 3.49997C10.4233 3.49997 10.7095 3.36169 10.9205 3.11555C11.1314 2.86941 11.25 2.53557 11.25 2.18747C11.25 1.83937 11.1314 1.50553 10.9205 1.25939C10.7095 1.01325 10.4233 0.87497 10.125 0.87497ZM8.24995 2.18747C8.2499 1.67422 8.40454 1.1773 8.68681 0.783629C8.96908 0.389963 9.36101 0.124625 9.79403 0.0340396C10.227 -0.056546 10.6736 0.0333888 11.0555 0.288109C11.4374 0.54283 11.7304 0.946115 11.8832 1.42741C12.036 1.9087 12.0389 2.43735 11.8914 2.92087C11.7438 3.40439 11.4552 3.81198 11.0761 4.07234C10.697 4.33271 10.2515 4.42925 9.8175 4.34509C9.38353 4.26093 8.98874 4.00142 8.7022 3.61197L3.66371 6.34197C3.77949 6.77024 3.77949 7.2297 3.66371 7.65797L8.7022 10.388C9.00509 9.97701 9.42795 9.71186 9.88885 9.64392C10.3497 9.57597 10.8159 9.71006 11.1968 10.0202C11.5778 10.3303 11.8466 10.7945 11.951 11.3226C12.0554 11.8507 11.988 12.4052 11.7619 12.8787C11.5358 13.3522 11.1671 13.7109 10.7273 13.8853C10.2874 14.0597 9.80772 14.0374 9.38116 13.8227C8.95461 13.608 8.61155 13.2162 8.41849 12.7232C8.22543 12.2303 8.19611 11.6712 8.3362 11.1545L3.2977 8.42447C3.04828 8.76359 2.71582 9.00546 2.34504 9.11754C1.97426 9.22962 1.58295 9.20654 1.22376 9.05139C0.864563 8.89624 0.554712 8.61647 0.335885 8.24972C0.117059 7.88297 -0.000244141 7.44683 -0.000244141 6.99997C-0.000244141 6.55311 0.117059 6.11697 0.335885 5.75022C0.554712 5.38347 0.864563 5.1037 1.22376 4.94855C1.58295 4.7934 1.97426 4.77031 2.34504 4.88239C2.71582 4.99447 3.04828 5.23635 3.2977 5.57547L8.3362 2.84547C8.27885 2.63255 8.24977 2.41065 8.24995 2.18747ZM1.87495 5.68747C1.57659 5.68747 1.29044 5.82575 1.07946 6.07189C0.868481 6.31803 0.749955 6.65187 0.749955 6.99997C0.749955 7.34807 0.868481 7.68191 1.07946 7.92805C1.29044 8.17419 1.57659 8.31247 1.87495 8.31247C2.17332 8.31247 2.45947 8.17419 2.67045 7.92805C2.88143 7.68191 2.99996 7.34807 2.99996 6.99997C2.99996 6.65187 2.88143 6.31803 2.67045 6.07189C2.45947 5.82575 2.17332 5.68747 1.87495 5.68747ZM10.125 10.5C9.82659 10.5 9.54044 10.6383 9.32946 10.8844C9.11848 11.1305 8.99996 11.4644 8.99995 11.8125C8.99996 12.1606 9.11848 12.4944 9.32946 12.7405C9.54044 12.9867 9.82659 13.125 10.125 13.125C10.4233 13.125 10.7095 12.9867 10.9205 12.7405C11.1314 12.4944 11.25 12.1606 11.25 11.8125C11.25 11.4644 11.1314 11.1305 10.9205 10.8844C10.7095 10.6383 10.4233 10.5 10.125 10.5Z" fill="#414141"/>
</g>
<defs>
<clipPath id="clip0_243_838">
<rect width="12" height="14" fill="white"/>
</clipPath>
</defs>
</svg>
